<svg xmlns="http://www.w3.org/2000/svg" viewBox="0 0 512 512"><path fill="#ffffff" d="m449.76,2l-385.52,0c-33.25,0 -60.24,26.99 -60.24,60.24l0,385.52c0,33.25 26.99,60.24 60.24,60.24l385.52,0c33.25,0 60.24,-26.99 60.24,-60.24l0,-385.52c0,-33.25 -26.99,-60.24 -60.24,-60.24zm-48.19,180.71l-24.1,0c-25.78,0 -36.14,6.02 -36.14,24.1l0,36.14l60.24,0l-12.05,60.24l-48.19,0l0,180.71l-60.24,0l0,-180.71l-48.19,0l0,-60.24l48.19,0l0,-36.14c0,-48.19 24.1,-84.33 72.29,-84.33c34.94,0 48.19,12.05 48.19,12.05l0,48.19z"/></svg>