<svg xmlns="http://www.w3.org/2000/svg" viewBox="0 0 512 512"><path fill="#ffffff" d="m152.8,3c-82.62,0 -149.8,67.05 -149.8,149.5l0,207c0,82.46 67.18,149.5 149.8,149.5l207.41,0c82.62,0 149.8,-67.04 149.8,-149.5l0,-207c0,-82.45 -67.18,-149.5 -149.8,-149.5l-207.41,0zm241.98,92c12.67,0 23.05,10.35 23.05,23c0,12.65 -10.37,23 -23.05,23c-12.67,0 -23.05,-10.35 -23.05,-23c0,-12.65 10.37,-23 23.05,-23zm-138.27,34.5c69.94,0 126.75,56.69 126.75,126.5c0,69.81 -56.81,126.5 -126.75,126.5c-69.94,0 -126.75,-56.69 -126.75,-126.5c0,-69.81 56.81,-126.5 126.75,-126.5zm0,23c-57.15,0 -103.7,46.46 -103.7,103.5c0,57.04 46.55,103.5 103.7,103.5c57.15,0 103.7,-46.46 103.7,-103.5c0,-57.04 -46.55,-103.5 -103.7,-103.5z"/></svg>