<?xml version="1.0" encoding="UTF-8" standalone="no"?>
<!-- Created with Inkscape (http://www.inkscape.org/) -->

<svg
   width="179.66797mm"
   height="47.362701mm"
   viewBox="0 0 179.66797 47.362701"
   version="1.1"
   id="svg4610"
   inkscape:version="1.1 (c68e22c387, 2021-05-23)"
   sodipodi:docname="icon.svg"
   inkscape:export-xdpi="139.442"
   inkscape:export-ydpi="139.442"
   xmlns:inkscape="http://www.inkscape.org/namespaces/inkscape"
   xmlns:sodipodi="http://sodipodi.sourceforge.net/DTD/sodipodi-0.dtd"
   xmlns="http://www.w3.org/2000/svg"
   xmlns:svg="http://www.w3.org/2000/svg">
  <sodipodi:namedview
     id="namedview4612"
     pagecolor="#ffffff"
     bordercolor="#666666"
     borderopacity="1.0"
     inkscape:pageshadow="2"
     inkscape:pageopacity="0"
     inkscape:pagecheckerboard="true"
     inkscape:document-units="mm"
     showgrid="false"
     showborder="false"
     inkscape:zoom="0.70710678"
     inkscape:cx="695.79307"
     inkscape:cy="154.85639"
     inkscape:window-width="2560"
     inkscape:window-height="1387"
     inkscape:window-x="-8"
     inkscape:window-y="-8"
     inkscape:window-maximized="1"
     inkscape:current-layer="g15762" />
  <defs
     id="defs4607" />
  <g
     inkscape:groupmode="layer"
     id="layer3"
     inkscape:label="Icon"
     transform="translate(88.403609,12.16784)">
    <g
       id="g15762"
       transform="translate(1.2289733,-106.58742)"
       inkscape:export-xdpi="139.442"
       inkscape:export-ydpi="139.442">
      <path
         style="fill:#000000;stroke-width:0.0493002"
         d="m -61.506726,141.72107 c -0.08135,-0.0457 -2.022546,-1.03332 -4.313782,-2.19479 -2.291236,-1.16147 -4.809256,-2.43952 -5.59559,-2.84013 -3.803263,-1.93756 -9.665486,-4.90403 -10.513301,-5.32007 -0.521973,-0.25613 -0.949585,-0.46667 -0.950255,-0.46786 -0.01978,-0.0351 -1.45975,-7.05765 -1.449621,-7.06952 0.0081,-0.01 0.829991,0.40641 1.826284,0.92438 0.996293,0.51798 1.850009,0.94178 1.89714,0.94178 0.04716,0 0.259464,-0.13369 0.471842,-0.29709 0.212385,-0.1634 0.447161,-0.34239 0.521725,-0.39776 l 0.135577,-0.10067 0.002,0.16358 c 0.0363,2.76142 0.19056,6.11097 0.321043,6.97022 0.0201,0.13206 0.08964,0.19062 0.552404,0.46488 0.29121,0.17258 0.558454,0.35418 0.593882,0.40354 0.08389,0.11688 0.218688,0.11414 0.328029,-0.007 0.07903,-0.0873 0.08385,-0.16721 0.051,-0.84566 -0.03487,-0.71966 -0.03266,-0.74779 0.05594,-0.71281 0.05074,0.02 0.24752,0.0769 0.437325,0.12646 0.189805,0.0495 0.407557,0.11418 0.483884,0.14369 0.185472,0.0717 0.404922,0.0679 0.464341,-0.008 0.02654,-0.0339 0.187965,-0.42246 0.358729,-0.86346 0.300655,-0.77646 0.31375,-0.79973 0.413821,-0.73538 0.37464,0.24088 2.970676,1.77616 3.153703,1.86509 l 0.225025,0.10932 -0.244957,0.45307 c -0.134731,0.24917 -0.244964,0.51341 -0.244964,0.58718 0,0.0902 0.136781,0.32236 0.417582,0.70876 0.229676,0.31604 0.43566,0.59535 0.457752,0.6207 0.02205,0.0253 0.361076,0.20283 0.7533,0.39441 l 0.713133,0.3483 0.05727,0.92098 c 0.03149,0.50653 0.07849,0.95891 0.104438,1.00526 0.04374,0.0782 1.123512,0.695 1.470025,0.83978 0.129116,0.0539 0.169251,0.0523 0.258873,-0.0104 l 0.10606,-0.0743 v -2.56082 c 0,-1.40845 0.01252,-2.56083 0.02778,-2.56083 0.01527,0 1.340849,0.68003 2.945695,1.51118 4.009182,2.07634 3.998414,2.07103 4.478327,2.20721 0.63494,0.18016 1.315795,0.24218 1.927585,0.17558 0.277933,-0.0302 0.549698,-0.0847 0.60393,-0.12096 0.05423,-0.0362 0.597767,-0.45147 1.207859,-0.92267 l 1.109258,-0.85674 0.01343,-0.95347 c 0.0094,-0.66922 -0.0035,-0.97401 -0.04383,-1.02243 -0.03149,-0.0379 -0.298227,-0.21416 -0.592773,-0.39162 l -0.535532,-0.32267 2.625324,-2.04868 2.625328,-2.04869 0.01282,2.15325 0.01282,2.15325 -0.368959,1.14346 c -0.202922,0.62891 -0.383134,1.23561 -0.400462,1.34823 -0.02822,0.18343 -0.0181,0.21355 0.09729,0.28914 0.121971,0.0799 0.135959,0.0797 0.264364,-0.005 0.208234,-0.1362 6.03349,-4.70204 6.184889,-4.84772 0.103186,-0.0993 0.24546,-0.45653 0.63026,-1.58259 l 0.496993,-1.45436 -0.0031,-2.29813 -0.0031,-2.29813 2.996255,-2.33362 c 1.64793,-1.28349 3.077135,-2.3976 3.175999,-2.47581 l 0.179749,-0.1422 0.596733,0.32992 0.59673,0.32991 v 0.4089 0.4089 l -0.22969,-0.0691 c -0.31979,-0.0962 -0.350212,-0.0907 -0.539396,0.0985 l -0.167624,0.16762 v 1.00111 1.00111 l -0.819191,2.14672 c -0.450551,1.1807 -0.844336,2.16302 -0.875081,2.18293 -0.03075,0.0199 -0.544306,0.0366 -1.141254,0.037 l -1.085356,6.5e-4 -1.009906,0.72035 c -0.555446,0.39619 -1.026514,0.7356 -1.046813,0.75423 -0.02028,0.0186 -0.147992,0.43214 -0.283759,0.91889 -0.135767,0.48675 -0.328527,1.14736 -0.428351,1.468 l -0.181507,0.58301 -5.092597,3.91477 c -2.80093,2.15312 -5.134504,3.94094 -5.185722,3.97291 -0.08031,0.0502 -0.146566,0.0171 -0.481435,-0.23994 -0.213569,-0.16396 -0.437387,-0.31298 -0.497372,-0.33116 -0.13117,-0.0397 0.05589,-0.20465 -2.652789,2.33885 -2.602483,2.44377 -2.283691,2.17541 -2.46399,2.0742 z m -7.629021,-4.68059 c -0.237142,-0.1299 -0.443593,-0.24861 -0.458776,-0.26379 -0.01518,-0.0152 -0.05719,-0.49546 -0.09337,-1.06727 l -0.06576,-1.03966 -0.43682,-0.59375 c -0.240253,-0.32656 -0.457137,-0.62378 -0.481961,-0.66048 -0.03162,-0.0466 0.08459,-0.30629 0.385875,-0.86267 l 0.43102,-0.79594 0.600131,0.30907 0.600126,0.30906 0.01278,2.4527 c 0.007,1.34898 -0.0039,2.45184 -0.02464,2.4508 -0.02059,-6.5e-4 -0.231461,-0.10818 -0.468604,-0.23807 z m 9.305231,-2.40666 c -0.290468,-0.0289 -0.639399,-0.15316 -1.084175,-0.3861 -0.217158,-0.11374 -0.749798,-0.39047 -1.183639,-0.61495 -0.933421,-0.483 -0.966007,-0.50728 -0.929051,-0.69207 0.0239,-0.11947 0.0018,-0.15461 -0.162565,-0.25995 -0.104608,-0.067 -1.27727,-0.70375 -2.605911,-1.41502 -1.328645,-0.71126 -2.511133,-1.34768 -2.627749,-1.41427 l -0.212029,-0.12106 0.199922,-0.14483 0.199926,-0.14481 2.797575,1.46129 c 1.538668,0.80371 3.216863,1.68118 3.729331,1.94993 0.512463,0.26875 1.04236,0.51236 1.177551,0.54136 0.329294,0.0706 1.500809,0.0328 1.662175,-0.0537 0.06779,-0.0363 0.420857,-0.29901 0.784603,-0.58373 0.608432,-0.47625 0.669581,-0.51242 0.764153,-0.45194 0.05654,0.0362 0.264669,0.1637 0.462502,0.28345 0.197836,0.11974 0.353135,0.23445 0.345105,0.25491 -0.008,0.0205 -0.452588,0.40461 -0.98791,0.85367 -0.886386,0.74356 -0.996459,0.82092 -1.232507,0.86622 -0.330316,0.0634 -0.843337,0.0969 -1.097307,0.0716 z m -11.10551,-0.42565 c -0.342173,-0.17465 -0.439206,-0.25284 -0.60658,-0.48876 l -0.199238,-0.28086 0.394358,0.18536 c 0.216893,0.10196 0.435861,0.23982 0.486602,0.30637 0.252757,0.33153 0.366839,0.49051 0.350369,0.48827 -0.01,-0.001 -0.201475,-0.096 -0.425511,-0.21038 z m 19.067518,-0.14332 c 0,-0.009 0.133111,-0.41461 0.295807,-0.90098 l 0.295798,-0.88433 v -2.41787 -2.41786 l 1.044247,-0.81285 c 0.574333,-0.44707 1.062407,-0.82024 1.084607,-0.82928 0.0222,-0.009 0.04035,0.74043 0.04035,1.66547 0,1.87614 0.0051,1.90988 0.323711,2.15291 0.155395,0.11853 0.233288,0.14208 0.469969,0.14208 0.304499,0 0.465572,-0.0822 0.652976,-0.3332 0.09367,-0.12546 0.09661,-0.21074 0.08598,-2.49319 l -0.01099,-2.36328 1.100269,-0.86045 1.100273,-0.86045 0.01287,2.06013 0.01287,2.06014 -0.324667,0.95144 c -0.178567,0.5233 -0.391635,1.14354 -0.473488,1.37831 l -0.148822,0.42685 -2.691755,2.11211 c -2.808061,2.20338 -2.869982,2.25137 -2.869982,2.2243 z m -19.731924,-1.06528 -0.381536,-0.18081 0.47449,-0.86275 c 0.260967,-0.47452 0.481184,-0.87061 0.489368,-0.88021 0.02361,-0.0277 0.760567,0.4027 0.760567,0.44422 0,0.0663 -0.877721,1.64076 -0.920259,1.65072 -0.02257,0.005 -0.212789,-0.0717 -0.42263,-0.17117 z m 11.140959,-0.0589 c -0.161378,-0.0405 -3.620383,-1.83556 -15.295059,-7.93728 -1.545561,-0.80779 -4.93298,-2.57784 -7.527592,-3.93345 -2.594612,-1.35562 -4.804487,-2.53469 -4.910842,-2.62016 -0.245432,-0.19723 -0.323639,-0.34489 -0.327379,-0.61808 -0.0033,-0.2171 0.0013,-0.22239 1.176489,-1.49632 l 1.179476,-1.27845 0.102334,0.15105 c 0.08102,0.11958 0.384834,0.28802 1.458098,0.80837 0.745669,0.36154 1.440051,0.68319 1.543063,0.71479 0.165319,0.0507 0.197748,0.0463 0.276267,-0.0373 0.04892,-0.0522 0.593855,-1.49247 1.210941,-3.20073 0.617086,-1.70826 1.143735,-3.13286 1.170329,-3.16577 0.02661,-0.0329 0.47622,-1.07478 0.999175,-2.31527 0.767169,-1.81978 0.997216,-2.31768 1.190977,-2.57766 0.222487,-0.29852 0.622752,-0.59965 5.441336,-4.09376 l 5.201186,-3.771557 h 0.566957 0.566953 l 0.01352,0.792705 0.01352,0.792703 -0.876267,0.649574 c -0.481941,0.357265 -1.830221,1.354945 -2.996176,2.217065 -2.000023,1.47884 -2.120084,1.57626 -2.122895,1.72261 -0.0026,0.1371 -0.05991,0.19879 -0.492997,0.53117 -0.269514,0.20684 -0.507608,0.40742 -0.529095,0.44572 -0.06037,0.10764 0.03825,0.24189 0.296348,0.40343 0.381874,0.23903 14.193665,7.50628 14.266058,7.50628 0.03633,0 0.111247,-0.0457 0.166434,-0.10148 0.100909,-0.10207 1.065729,-0.82245 6.180924,-4.61499 1.707631,-1.26608 2.804288,-2.11115 2.847097,-2.19393 0.08896,-0.17202 0.09092,-0.60465 0.0031,-0.69066 -0.03655,-0.0358 -0.291702,-0.17518 -0.566953,-0.30968 -0.487009,-0.23796 -0.500456,-0.249 -0.500456,-0.41064 v -0.16612 l -2.786388,-1.37648 c -1.532523,-0.75708 -2.80817,-1.3765 -2.83478,-1.3765 -0.03058,0 -0.04839,-0.55304 -0.04839,-1.503659 0,-0.827019 0.01661,-1.502438 0.03699,-1.500941 0.02032,0.0013 2.947901,1.460172 6.5057,3.2415 l 6.468723,3.23878 -1.767551,1.15786 c -1.175724,0.77017 -1.804593,1.21191 -1.878181,1.31931 -0.06084,0.0888 -0.128553,0.2555 -0.150457,0.37046 -0.03699,0.19413 0.07414,0.5367 1.563289,4.81857 0.881714,2.53527 1.634771,4.65872 1.673458,4.71878 0.191054,0.29659 0.368213,0.26088 0.962577,-0.19401 0.461883,-0.35349 4.942216,-3.48017 5.04142,-3.51823 0.09406,-0.0361 1.21489,1.67354 1.21489,1.85311 0,0.16422 0.702293,-0.39928 -6.482993,5.20182 -2.847097,2.21937 -6.485467,5.05595 -8.085263,6.3035 -1.599795,1.24755 -3.951421,3.08123 -5.225839,4.07484 -1.274413,0.9936 -2.381002,1.84789 -2.459087,1.89841 -0.11406,0.0738 -0.254624,0.0943 -0.714858,0.10457 -0.315085,0.007 -0.656247,-0.008 -0.758138,-0.0338 z m 1.062898,-4.16173 c 0.482639,-0.17215 0.701268,-0.43467 0.84926,-1.01974 l 0.07946,-0.31413 0.76875,-0.467 c 0.800279,-0.48616 0.890704,-0.57272 1.113672,-1.06618 0.07701,-0.17044 0.197531,-0.25973 1.05848,-0.78421 l 0.971576,-0.59188 0.01304,-1.51765 0.01304,-1.51765 -0.786065,-2.62331 c -0.432337,-1.44282 -0.821943,-2.74905 -0.865799,-2.90274 -0.07943,-0.2784 -0.236947,-0.455 -0.662907,-0.74322 -0.17793,-0.12039 -0.27201,-0.10984 -0.734795,0.0824 -0.513235,0.21323 -0.82743,0.3966 -0.918037,0.5358 -0.06105,0.0938 -0.585215,1.27977 -1.333569,3.01736 -0.176064,0.4088 -2.053862,4.72631 -3.188866,7.33197 -0.162054,0.37204 -0.287075,0.71574 -0.277824,0.76379 0.0092,0.048 0.07201,0.11423 0.13947,0.14709 0.06746,0.0328 0.743832,0.43662 1.50306,0.89727 l 1.380408,0.83753 0.345102,6.5e-4 c 0.189807,4.1e-4 0.429449,-0.0294 0.532543,-0.0662 z m -0.803694,-0.45419 c -0.171205,-0.0754 -2.448842,-1.42419 -2.534146,-1.50066 -0.02538,-0.0228 0.608851,-1.54376 1.479011,-3.54678 l 1.52349,-3.50692 0.03659,1.96392 c 0.02015,1.08016 0.03123,3.01773 0.02464,4.3057 l -0.01195,2.34177 -0.172548,0.01 c -0.0949,0.005 -0.250202,-0.0247 -0.345105,-0.0665 z m 0.986925,-4.95929 8.45e-4,-4.79446 0.535951,-1.23251 0.535955,-1.23251 0.338214,-0.18331 c 0.186021,-0.10082 0.365949,-0.18402 0.399843,-0.18488 0.04893,-0.001 0.06162,1.07994 0.06162,5.24574 v 5.24729 l -0.72718,0.44578 c -0.399947,0.24518 -0.744206,0.45195 -0.765016,0.45951 -0.0208,0.008 -0.0788,0.17999 -0.128858,0.3832 -0.09705,0.39392 -0.184272,0.64061 -0.226488,0.64061 -0.01422,0 -0.02547,-2.1575 -0.02495,-4.79446 z m 2.316201,-2.7531 v -4.8291 l 0.113519,0.0744 c 0.0955,0.0626 0.248269,0.52406 0.962155,2.90642 l 0.848636,2.83203 -0.01313,1.33932 -0.01313,1.33933 -0.949031,0.58335 -0.94903,0.58336 z m -8.941178,8.08655 c 0.426985,-0.20669 0.351386,-0.0427 3.623842,-7.86009 l 1.774847,-4.23983 0.0088,-0.41905 c 0.01129,-0.53962 -0.09756,-0.90027 -0.37561,-1.24459 -0.115063,-0.14249 -0.297503,-0.30406 -0.405422,-0.35905 -0.107918,-0.055 -1.155027,-0.58743 -2.326909,-1.18321 -1.721043,-0.87497 -2.125801,-1.09921 -2.105276,-1.16633 0.06083,-0.1989 -0.539335,-1.16487 -1.053181,-1.69512 -1.244881,-1.28462 -3.136417,-1.81898 -4.85887,-1.37265 l -0.291372,0.0755 -2.39326,-1.16269 -2.39326,-1.16269 -0.249855,0.083 c -0.331386,0.11007 -0.463756,0.1949 -0.799267,0.51221 l -0.281692,0.26641 -1.56509,4.34019 c -1.439447,3.99178 -2.238018,6.0386 -2.80554,7.19094 -0.26163,0.53123 -0.256399,1.05177 0.01314,1.30484 0.114786,0.10778 0.62177,0.36978 8.318005,4.29869 2.616619,1.33577 5.349402,2.73655 6.072852,3.11283 1.578074,0.82077 1.713131,0.8647 2.093198,0.6807 z m -0.996563,-0.62639 c -0.472987,-0.24636 -4.183682,-2.14531 -10.936063,-5.59653 -2.247873,-1.14891 -4.141448,-2.1374 -4.207958,-2.19664 -0.178076,-0.15862 -0.137171,-0.32868 0.351605,-1.46185 0.551903,-1.2795 0.564491,-1.30646 0.610275,-1.30646 0.02134,0 0.08209,0.0802 0.134887,0.17828 0.198405,0.36842 0.585308,0.63661 1.873786,1.2989 0.677878,0.34844 3.901019,1.99988 7.162527,3.66987 6.606453,3.3827 6.161874,3.18776 6.778844,2.97238 l 0.334477,-0.11677 -0.02198,0.12758 c -0.03149,0.18287 -0.898458,2.20342 -1.024756,2.38832 -0.246241,0.36047 -0.431526,0.368 -1.055654,0.0429 z m 1.102737,-2.82073 c -0.136133,-0.041 -3.433769,-1.70997 -3.504029,-1.77338 -0.02124,-0.0191 0.06597,-0.24375 0.193767,-0.49911 0.398378,-0.79598 1.203023,-1.48089 2.025573,-1.72413 0.114801,-0.0339 0.245805,-0.1027 0.291118,-0.15277 0.04531,-0.0501 0.108786,-0.091 0.141053,-0.091 0.03227,0 0.189668,-0.0848 0.349785,-0.18836 0.217111,-0.14046 0.328719,-0.25639 0.439023,-0.45602 l 0.147897,-0.26768 0.0147,-3.61124 c 0.0082,-2.00962 0.03376,-3.61126 0.05768,-3.61126 0.02364,0 0.982083,0.4788 2.129867,1.064 2.367964,1.20731 2.390335,1.2231 2.52789,1.7844 0.06297,0.25697 0.07112,0.39489 0.03564,0.60344 -0.06674,0.39243 -3.321567,8.16093 -3.496793,8.34601 -0.210825,0.22269 -0.530067,0.42567 -0.833841,0.53019 -0.303309,0.10435 -0.322993,0.10613 -0.519342,0.047 z m -4.83154,-2.44095 c -0.480204,-0.24404 -1.068113,-0.54577 -1.306455,-0.67051 -0.238354,-0.12474 -1.270855,-0.65387 -2.29445,-1.17584 -1.023602,-0.52196 -1.861094,-0.97782 -1.861094,-1.01302 0,-0.0352 0.103837,-0.27145 0.230743,-0.52503 0.433207,-0.86557 1.25802,-1.52412 2.215704,-1.76905 0.208696,-0.0534 0.460334,-0.097 0.559189,-0.097 0.09886,0 0.321901,-0.048 0.495645,-0.10668 0.362969,-0.12258 0.686517,-0.41925 0.888558,-0.81475 l 0.121142,-0.23713 0.02466,-3.40173 0.02465,-3.40172 0.271147,-0.0569 c 0.407967,-0.0856 1.371477,-0.0792 1.813867,0.0119 1.305612,0.26902 2.410456,1.07261 3.077445,2.23831 l 0.211275,0.36924 v 3.91989 3.91989 l -0.108756,0.17486 c -0.116711,0.18765 -0.64273,0.50522 -1.2811,0.77344 -0.882119,0.37062 -1.568042,1.02205 -2.011868,1.91068 l -0.1972,0.39484 z m -7.668993,-3.92632 c -1.231355,-0.63139 -1.809201,-0.95494 -1.980473,-1.10893 -0.267907,-0.24088 -0.496061,-0.64561 -0.496061,-0.88001 0,-0.17445 3.013358,-8.59491 3.162225,-8.83645 0.137002,-0.22228 0.511147,-0.54044 0.714457,-0.60753 0.165989,-0.0548 0.238075,-0.0238 2.534815,1.09207 l 2.36396,1.14846 -0.0013,3.25623 c -0.0013,3.66167 0.01841,3.46101 -0.376858,3.85579 -0.198783,0.19856 -0.288374,0.22724 -1.127863,0.36106 -0.4289,0.0684 -1.035714,0.30935 -1.427568,0.56694 -0.612701,0.40275 -1.223737,1.13719 -1.46697,1.76324 -0.06056,0.15591 -0.121343,0.28283 -0.135044,0.28205 -0.01366,-6.5e-4 -0.807287,-0.4026 -1.76354,-0.89292 z m -0.214824,13.18874 -0.277256,-0.17018 -0.035,-0.49411 c -0.01926,-0.27175 -0.05523,-0.63143 -0.07984,-0.79928 -0.02466,-0.16787 -0.07922,-1.63631 -0.121265,-3.26322 -0.07212,-2.79083 -0.08177,-2.9634 -0.170784,-3.05317 -0.125903,-0.12697 -0.186064,-0.0962 -0.896631,0.45864 -0.316945,0.24748 -0.58871,0.44997 -0.603933,0.44997 -0.01522,0 -0.02765,-0.24209 -0.02765,-0.53799 v -0.53797 l 0.332778,-0.23363 c 0.183027,-0.1285 0.389069,-0.28538 0.457869,-0.34862 l 0.12509,-0.11497 1.699021,0.8853 c 0.93446,0.48692 1.699021,0.90659 1.699021,0.93262 0,0.026 -0.432608,0.34274 -0.961359,0.70382 l -0.961353,0.65649 v 0.64091 0.64091 l 0.394403,0.1972 c 0.21692,0.10845 0.401286,0.20039 0.409704,0.20428 0.0084,0.004 -0.129885,0.29682 -0.307336,0.65094 l -0.32263,0.64386 -0.152543,-0.0531 c -0.362762,-0.12646 -0.523664,0.15361 -0.44629,0.77682 l 0.04775,0.38473 0.274732,0.24099 0.274745,0.24099 v 0.53822 c 0,0.29602 -0.01659,0.53632 -0.03702,0.53401 -0.0203,-0.002 -0.161742,-0.0808 -0.314232,-0.17439 z m 6.070047,-0.80087 c -0.149134,-0.0767 -0.90343,-0.51992 -1.676213,-0.985 -1.412424,-0.85002 -1.632433,-0.94791 -1.762259,-0.78403 -0.02687,0.0339 -0.188745,0.42302 -0.359776,0.86472 -0.24899,0.64305 -0.326429,0.79711 -0.388594,0.77307 -0.04267,-0.0165 -0.177471,-0.0494 -0.299491,-0.073 -0.122013,-0.0236 -0.318928,-0.0776 -0.437572,-0.11984 -0.11865,-0.0423 -0.265416,-0.0769 -0.326143,-0.0769 -0.06076,0 -0.224329,-0.0927 -0.363555,-0.20592 -0.206634,-0.16809 -0.253141,-0.23419 -0.253141,-0.35985 0,-0.14641 0.0083,-0.15296 0.169743,-0.13411 l 0.169743,0.0198 0.422135,-0.84317 c 0.232174,-0.46375 0.431672,-0.84318 0.443323,-0.84318 0.01164,0 0.669792,0.31059 1.462527,0.69021 0.792736,0.37961 1.481224,0.6902 1.529975,0.6902 0.08833,0 0.828651,-0.5579 1.198249,-0.90299 0.14365,-0.13412 0.237528,-0.18161 0.358976,-0.18161 0.09046,0 0.17373,0.0277 0.185056,0.0616 0.03344,0.10016 0.232148,2.39337 0.214414,2.47478 -0.01327,0.061 -0.06547,0.0492 -0.287397,-0.0649 z m 0.741877,-0.1298 c -0.0073,-0.3449 -0.214232,-2.3865 -0.251124,-2.47745 -0.07194,-0.17735 -0.334073,-0.30762 -0.619447,-0.30783 -0.281348,-4.2e-4 -0.4725,0.10309 -0.857314,0.4633 -0.398436,0.37296 -0.394403,0.37199 -0.394403,0.0949 v -0.24248 l 0.875086,-0.59511 0.875079,-0.5951 0.309815,0.1527 0.309815,0.1527 -0.0065,1.50463 c -0.0065,1.47902 -0.0085,1.5084 -0.122716,1.72648 -0.07759,0.14808 -0.116939,0.18906 -0.118332,0.12324 z m 1.168511,-0.29976 -0.480673,-0.27346 v -1.25402 c 0,-0.68971 0.0136,-1.25403 0.03025,-1.25403 0.01665,0 0.527805,0.25715 1.135908,0.57144 l 1.105647,0.57143 -0.581285,0.41844 c -0.319703,0.23013 -0.603467,0.45551 -0.630579,0.50084 -0.02713,0.0453 -0.06039,0.28726 -0.07395,0.53762 l -0.02464,0.45518 z m -13.816422,-0.66684 c -0.460959,-0.23581 -0.860846,-0.44932 -0.888636,-0.47447 -0.02778,-0.0252 -0.391151,-1.61913 -0.807457,-3.54217 -0.4163,-1.92303 -0.768699,-3.52716 -0.783095,-3.56474 -0.01438,-0.0376 0.404421,0.15545 0.930706,0.42894 l 0.956877,0.49727 0.177953,0.85286 c 0.691981,3.3164 1.282285,6.21157 1.268325,6.22049 -0.0091,0.006 -0.393721,-0.18237 -0.854673,-0.41818 z m 8.479661,-2.63247 c -0.921917,-0.41578 -1.708811,-0.7764 -1.748669,-0.80138 -0.05504,-0.0345 0.14324,-0.18954 0.824794,-0.64493 0.493478,-0.32973 0.907846,-0.5995 0.920818,-0.5995 0.03409,0 3.249591,1.68076 3.294809,1.72222 0.04059,0.0372 -1.483435,1.09228 -1.566241,1.08429 -0.02713,-0.003 -0.803593,-0.34493 -1.725511,-0.7607 z m -5.866743,-4.23253 c -3.792536,-1.98335 -7.477696,-3.87723 -7.544382,-3.87723 -0.131947,0 -0.417627,-0.31768 -0.417627,-0.4644 0,-0.14853 0.171564,-0.43838 0.426546,-0.72061 0.187977,-0.20807 0.26366,-0.24237 0.26366,-0.11949 0,0.10783 0.171772,0.41501 0.332049,0.59381 0.09373,0.10455 1.429748,0.82645 4.277532,2.31126 2.277681,1.18756 4.148279,2.16519 4.156898,2.17251 0.03695,0.0314 -0.628379,0.46668 -0.712128,0.46592 -0.05081,-4.1e-4 -0.402932,-0.16325 -0.782548,-0.36177 z m 44.015119,-5.8423 c -0.22248,-0.12791 -0.416574,-0.24464 -0.431334,-0.25939 -0.01474,-0.0148 0.342881,-0.31342 0.794753,-0.66367 0.451864,-0.35026 0.862197,-0.7034 0.911832,-0.78475 0.148179,-0.24284 0.12252,-0.62607 -0.05966,-0.89084 -0.08265,-0.12013 -0.12888,-0.21842 -0.102733,-0.21842 0.105529,0 0.789881,0.50445 1.078784,0.7952 0.289656,0.2915 0.308127,0.32387 0.308127,0.54017 v 0.23009 l -0.969874,0.72778 c -0.533426,0.40027 -1.004859,0.73422 -1.047629,0.74209 -0.04278,0.008 -0.259788,-0.0903 -0.482268,-0.21826 z m -6.043094,-0.75983 c -0.042,-0.14177 -0.36663,-1.08666 -0.721427,-2.09974 -0.354796,-1.01308 -0.645081,-1.85867 -0.645081,-1.87909 0,-0.0204 0.382693,-0.26515 0.850433,-0.54385 0.467736,-0.2787 0.887023,-0.53824 0.931751,-0.57675 0.04472,-0.0385 0.153675,-0.0721 0.242111,-0.0746 0.302575,-0.009 0.456822,0.25312 1.18234,2.00607 0.359451,0.8685 0.655772,1.60465 0.658493,1.6359 0.0026,0.0312 -0.405587,0.34184 -0.907356,0.6902 -0.501773,0.34837 -0.960175,0.66667 -1.018677,0.70735 -0.0585,0.0407 -0.194081,0.14558 -0.301302,0.23312 l -0.194949,0.15916 z m -40.708192,-1.09599 -1.257162,-0.60933 -0.01516,-0.173 c -0.02303,-0.26316 0.186975,-0.67592 0.437657,-0.86027 0.114714,-0.0844 0.221869,-0.14581 0.23812,-0.13655 0.01626,0.009 0.550901,0.24424 1.188107,0.52216 0.637207,0.27794 1.175963,0.52105 1.197229,0.54027 0.05133,0.0464 -0.413503,1.33409 -0.479974,1.32956 -0.02843,-0.002 -0.617424,-0.27771 -1.308859,-0.61284 z m 43.607863,-0.712 c -0.01435,-0.0232 -0.343395,-0.80615 -0.731205,-1.73987 -0.75327,-1.8136 -0.822213,-1.93108 -1.21059,-2.0631 -0.296552,-0.10081 -0.502344,-0.0207 -1.520471,0.59192 l -0.976466,0.58754 -0.0794,-0.23026 c -0.04368,-0.12664 -0.382,-1.09971 -0.751835,-2.16239 -0.369836,-1.06267 -0.672425,-1.99612 -0.672425,-2.07433 0,-0.0878 0.04696,-0.18633 0.122648,-0.25744 0.06745,-0.0634 0.892152,-0.61965 1.832665,-1.23618 1.374629,-0.90109 1.725936,-1.11101 1.791172,-1.07028 0.04463,0.0278 0.135052,0.15323 0.200938,0.27856 0.250978,0.47741 2.007049,3.37092 3.293108,5.42609 1.072218,1.71346 1.327576,2.15352 1.277309,2.20118 -0.03454,0.0327 -0.28468,0.2134 -0.555831,0.40141 -0.271154,0.188 -0.830627,0.57752 -1.243271,0.86559 -0.412644,0.28807 -0.762002,0.50478 -0.776348,0.48156 z m -42.729329,-0.90559 c -0.560731,-0.24911 -1.029438,-0.46401 -1.041563,-0.47756 -0.01763,-0.0198 1.594233,-1.211 3.155732,-2.33225 l 0.261376,-0.18769 -0.175454,0.48349 c -0.0965,0.26592 -0.377444,1.04367 -0.62432,1.72832 -0.246869,0.68466 -0.473019,1.24343 -0.502553,1.24171 -0.02953,-0.002 -0.512481,-0.20692 -1.073218,-0.45602 z"
         id="path14352-6"
         inkscape:export-xdpi="139.442"
         inkscape:export-ydpi="139.442" />
      <path
         style="vector-effect:non-scaling-stroke;fill:#e76f51;fill-opacity:1;stroke:#000000;stroke-width:0;-inkscape-stroke:hairline"
         d="m -60.26366,135.96476 c -0.451519,-0.0873 -1.521344,-0.59167 -4.047128,-1.90794 -1.176509,-0.61311 -3.945312,-2.04247 -4.622939,-2.38654 l -0.575811,-0.29236 v -0.47624 c 0,-0.46653 0.0047,-0.47981 0.229289,-0.65113 l 0.229283,-0.17488 0.379431,0.20913 c 0.707975,0.39022 1.036319,0.56806 1.62976,0.88273 0.563144,0.29862 0.838342,0.44709 1.628721,0.8787 0.190016,0.10377 0.582392,0.31452 0.871944,0.46836 0.992394,0.52723 1.012544,0.54116 1.053709,0.72858 0.05556,0.25297 0.07407,0.26636 1.156524,0.83713 1.798662,0.94841 2.100565,1.06541 2.7528,1.06684 0.483476,0.001 1.18859,-0.1231 1.377966,-0.24264 0.16464,-0.10393 1.241029,-0.99385 1.56143,-1.29094 0.104761,-0.0971 0.21299,-0.17663 0.240503,-0.17663 0.02752,0 0.05003,0.20587 0.05003,0.45748 v 0.45748 l -1.034413,0.80303 c -0.641684,0.49815 -1.122635,0.82356 -1.266785,0.8571 -0.334503,0.0778 -1.080546,0.056 -1.614316,-0.0472 z"
         id="path14818-4"
         inkscape:export-xdpi="139.442"
         inkscape:export-ydpi="139.442" />
      <path
         style="vector-effect:non-scaling-stroke;fill:#e76f51;fill-opacity:1;stroke:#000000;stroke-width:0;-inkscape-stroke:hairline"
         d="m -74.510863,129.1558 c -0.05432,-0.034 -0.572518,-0.28713 -1.15162,-0.56261 -2.321747,-1.10444 -2.138727,-1.00028 -2.138727,-1.21719 0,-0.16514 0.01776,-0.18603 0.115164,-0.13509 0.06336,0.0332 0.26323,0.12557 0.444201,0.20539 0.180964,0.0798 0.44748,0.19945 0.592255,0.26583 0.43849,0.20108 1.690772,0.7634 2.023564,0.90867 0.288731,0.12604 0.312586,0.1543 0.312586,0.37047 0,0.24287 -0.03096,0.26866 -0.197423,0.16453 z"
         id="path14857-5"
         inkscape:export-xdpi="139.442"
         inkscape:export-ydpi="139.442" />
      <path
         style="vector-effect:non-scaling-stroke;fill:#e76f51;fill-opacity:1;stroke:#000000;stroke-width:0;-inkscape-stroke:hairline"
         d="m -81.979946,124.44929 c -0.757646,-0.38417 -1.750035,-0.89939 -3.158731,-1.63993 -0.361942,-0.19027 -1.161495,-0.60491 -1.776792,-0.92144 -1.62892,-0.83795 -2.489454,-1.29324 -2.582922,-1.36655 -0.123796,-0.0971 -0.108417,-0.64066 0.01815,-0.64066 0.05523,0 0.536427,0.22593 1.069367,0.50207 0.53294,0.27614 1.398365,0.72386 1.92318,0.99495 1.108718,0.57268 2.478915,1.28534 3.323251,1.72847 0.32574,0.17095 0.898466,0.46731 1.272716,0.65857 0.374249,0.19127 0.694362,0.38399 0.71136,0.42829 0.01704,0.0443 0.02173,0.21016 0.01054,0.36859 l -0.02043,0.28805 z"
         id="path14896-6"
         inkscape:export-xdpi="139.442"
         inkscape:export-ydpi="139.442" />
      <path
         style="vector-effect:non-scaling-stroke;fill:#e76f51;fill-opacity:1;stroke:#000000;stroke-width:0;-inkscape-stroke:hairline"
         d="m -59.183743,111.92535 c -0.123436,-0.0655 -0.535365,-0.28219 -0.915403,-0.48157 -0.380033,-0.19938 -0.883454,-0.46576 -1.118718,-0.59196 -0.506593,-0.27175 -1.551591,-0.82349 -2.467758,-1.30294 -0.361936,-0.18941 -0.939396,-0.4927 -1.283237,-0.67399 -0.34384,-0.18128 -0.906487,-0.47794 -1.250332,-0.65923 -0.343841,-0.1813 -0.802844,-0.42552 -1.020007,-0.54272 -0.217163,-0.1172 -0.711251,-0.37809 -1.097978,-0.57976 -0.386724,-0.20166 -0.978987,-0.51309 -1.316137,-0.69206 -0.78784,-0.41821 -2.366841,-1.25103 -2.76114,-1.45632 l -0.305541,-0.15908 0.305541,-0.23117 c 0.168045,-0.12715 0.315416,-0.25474 0.327477,-0.28353 0.04912,-0.11726 0.251534,-0.0269 2.050983,0.91534 1.039965,0.54457 2.345861,1.22302 3.520672,1.8291 0.542908,0.28009 1.312848,0.67967 1.710981,0.88798 1.020016,0.53368 2.399316,1.24947 3.553577,1.84414 0.542907,0.27971 1.245897,0.64559 1.562203,0.81307 0.316305,0.16748 0.656962,0.30451 0.757012,0.30451 0.123031,0 0.437414,-0.18234 0.971363,-0.5634 1.161374,-0.82881 1.941537,-1.38646 2.664233,-1.90436 0.353541,-0.25335 0.975737,-0.69756 1.382663,-0.98711 1.344303,-0.95655 2.067963,-1.47324 2.462821,-1.75841 0.214454,-0.15488 0.421747,-0.29257 0.460647,-0.30598 0.03891,-0.0134 0.118697,-0.0846 0.177307,-0.1581 l 0.106562,-0.13372 0.304731,0.14752 c 0.167602,0.0811 0.304734,0.16933 0.304734,0.19599 0,0.084 -0.257817,0.28846 -1.743889,1.38274 -0.796262,0.58634 -1.521784,1.12112 -1.612269,1.18841 -0.09048,0.0673 -0.623518,0.45912 -1.184525,0.87074 -0.561004,0.41162 -1.735646,1.28421 -2.610317,1.93911 -0.87467,0.65489 -1.617656,1.20761 -1.651074,1.22826 -0.03341,0.0206 -0.161749,-0.016 -0.285182,-0.0815 z"
         id="path14935-1"
         inkscape:export-xdpi="139.442"
         inkscape:export-ydpi="139.442" />
      <path
         style="vector-effect:non-scaling-stroke;fill:#e76f51;fill-opacity:1;stroke:#000000;stroke-width:0;-inkscape-stroke:hairline"
         d="m -59.473979,110.03629 c -0.253355,-0.12977 -0.875229,-0.45176 -1.381944,-0.71553 -0.506714,-0.26377 -1.350688,-0.70136 -1.875499,-0.97241 -0.524807,-0.27105 -1.339169,-0.69255 -1.809688,-0.93666 -0.470522,-0.2441 -1.314496,-0.68145 -1.875499,-0.97188 -0.561003,-0.29042 -1.316141,-0.68297 -1.678077,-0.87233 -1.04004,-0.54411 -3.275549,-1.69717 -3.437896,-1.77324 -0.190052,-0.089 -0.186396,-0.11693 0.0324,-0.24731 0.09954,-0.0593 0.240195,-0.16316 0.312586,-0.23078 0.07238,-0.0676 0.279676,-0.22425 0.460646,-0.34808 0.180967,-0.1238 1.039749,-0.75572 1.9084,-1.40424 0.868652,-0.64852 1.749642,-1.29483 1.957759,-1.43624 l 0.378388,-0.257098 8.46e-4,1.565368 c 4.36e-4,0.86096 0.01915,1.63351 0.04148,1.71679 0.02648,0.0988 0.105712,0.16445 0.228189,0.18894 l 0.187631,0.0375 0.01771,1.44497 0.01766,1.44497 0.427749,0.18276 c 0.235259,0.10052 0.64984,0.2866 0.921295,0.4135 0.271452,0.12691 0.560179,0.25162 0.641619,0.27713 0.08143,0.0255 0.148062,0.074 0.148062,0.10776 0,0.0338 0.09624,0.0613 0.213874,0.0613 0.147945,-3e-5 0.288122,-0.066 0.454734,-0.21387 0.266296,-0.2364 0.354369,-0.31215 0.976565,-0.83994 0.642814,-0.54529 0.801584,-0.68293 0.879765,-0.76269 0.07192,-0.0734 0.18385,-0.023 0.959372,0.43153 0.164776,0.0966 0.344011,0.19716 0.398299,0.22353 0.05429,0.0264 0.158269,0.0838 0.231064,0.12761 0.640798,0.38578 1.224351,0.70485 1.289072,0.70485 0.04318,0 0.234662,-0.10365 0.425511,-0.23032 0.19085,-0.12668 0.36478,-0.23033 0.38651,-0.23033 0.02172,0 0.164776,-0.0808 0.31788,-0.17962 0.429554,-0.27717 0.528846,-0.33549 0.704778,-0.41393 0.08975,-0.04 0.185538,-0.10792 0.212867,-0.1509 0.0273,-0.0429 0.05014,-0.91471 0.0507,-1.93718 4.36e-4,-1.02248 0.02508,-1.85905 0.05448,-1.85905 0.04104,0 4.942032,2.41332 4.991862,2.45806 0.0061,0.005 0.0307,0.0881 0.05467,0.18357 0.04122,0.16426 -0.03022,0.22599 -1.327245,1.14703 -0.753942,0.53538 -1.662847,1.18272 -2.019772,1.43854 -1.036864,0.74311 -1.704848,1.21981 -2.449897,1.74834 -0.382659,0.27145 -0.951469,0.67863 -1.264024,0.90484 -0.312554,0.22621 -0.598875,0.41115 -0.636266,0.41097 -0.03738,-1.4e-4 -0.275277,-0.1065 -0.528636,-0.23627 z"
         id="path14974-0"
         inkscape:export-xdpi="139.442"
         inkscape:export-ydpi="139.442" />
      <path
         style="vector-effect:non-scaling-stroke;fill:#e76f51;fill-opacity:1;stroke:#000000;stroke-width:0;-inkscape-stroke:hairline"
         d="m -63.373651,103.22999 0.01705,-3.304632 0.888397,-0.639842 0.888391,-0.639835 0.0171,3.152139 0.0171,3.15214 -0.205304,0.17276 c -0.112917,0.095 -0.239058,0.20535 -0.280314,0.2452 -0.04126,0.0399 -0.364013,0.31867 -0.717239,0.61958 l -0.642229,0.54712 z"
         id="path15013-2"
         inkscape:export-xdpi="139.442"
         inkscape:export-ydpi="139.442" />
      <path
         style="vector-effect:non-scaling-stroke;fill:#e76f51;fill-opacity:1;stroke:#000000;stroke-width:0;-inkscape-stroke:hairline"
         d="m -64.771436,106.19755 -0.690974,-0.31141 -0.01706,-3.37275 -0.01705,-3.372734 0.708024,0.376833 c 0.389414,0.207252 0.745044,0.405813 0.790287,0.441234 0.06382,0.04996 0.08226,0.792497 0.08226,3.313797 0,2.55909 -0.01749,3.24801 -0.08226,3.24291 -0.04525,-0.003 -0.393201,-0.14661 -0.773234,-0.31788 z"
         id="path15052-9"
         inkscape:export-xdpi="139.442"
         inkscape:export-ydpi="139.442" />
      <path
         style="vector-effect:non-scaling-stroke;fill:#e76f51;fill-opacity:1;stroke:#000000;stroke-width:0;-inkscape-stroke:hairline"
         d="m -63.854855,99.388859 c -0.08789,-0.04671 -0.386427,-0.204565 -0.663417,-0.350739 -0.276987,-0.146174 -0.53647,-0.286077 -0.576623,-0.310895 -0.07011,-0.04333 0.245565,-0.290539 1.637567,-1.282387 0.558692,-0.398085 0.66029,-0.528993 0.543928,-0.700878 -0.02661,-0.0393 -0.32967,-0.20578 -0.67351,-0.370001 -0.343841,-0.164223 -0.944134,-0.45363 -1.333975,-0.643128 l -0.708809,-0.344542 0.458275,-0.315696 c 0.252047,-0.173639 0.557183,-0.391146 0.678081,-0.483358 l 0.219807,-0.167655 0.263866,0.149877 c 0.145123,0.08243 0.588342,0.322115 0.984927,0.532631 0.939283,0.498589 1.293626,0.702602 1.400284,0.80622 0.165726,0.161008 0.28567,0.103945 1.203419,-0.572527 0.303719,-0.223866 0.611441,-0.449063 0.68383,-0.500438 0.07239,-0.05137 0.229402,-0.164218 0.348922,-0.250765 l 0.217307,-0.157356 0.466326,0.256329 c 0.256478,0.140979 0.484436,0.256989 0.506571,0.257791 0.02211,8.46e-4 0.107496,0.05323 0.189702,0.116502 l 0.149463,0.115032 -0.675918,0.499903 c -0.371754,0.274945 -0.787565,0.570476 -0.924022,0.656735 -0.243728,0.154064 -0.365534,0.377708 -0.28058,0.515163 0.02369,0.03834 0.211558,0.153366 0.41749,0.255641 0.205932,0.102274 0.552098,0.284013 0.769265,0.40386 0.519895,0.286917 1.016835,0.557269 1.20304,0.654497 0.143622,0.07499 0.122844,0.09851 -0.479568,0.542581 -0.615972,0.454076 -0.6343,0.462364 -0.841104,0.380397 -0.116271,-0.04612 -0.241017,-0.105321 -0.277213,-0.131628 -0.0362,-0.02628 -0.273096,-0.15856 -0.526455,-0.293903 -0.455584,-0.243369 -0.919272,-0.495346 -1.466537,-0.796938 -0.15511,-0.08547 -0.308468,-0.155412 -0.3408,-0.155412 -0.03232,0 -0.168222,0.103209 -0.301969,0.22935 -0.133748,0.126139 -0.409779,0.338882 -0.613399,0.472761 -0.20362,0.133879 -0.59232,0.410263 -0.863771,0.614185 -0.641706,0.482062 -0.609491,0.467106 -0.7944,0.368791 z"
         id="path15091-4"
         inkscape:export-xdpi="139.442"
         inkscape:export-ydpi="139.442" />
      <path
         style="vector-effect:non-scaling-stroke;fill:#e76f51;fill-opacity:1;stroke:#000000;stroke-width:0;-inkscape-stroke:hairline"
         d="m -58.914621,106.12507 c -0.412029,-0.25071 -1.028006,-0.6072 -1.414846,-0.81884 -0.253356,-0.1386 -0.512473,-0.28426 -0.575812,-0.32368 -0.107124,-0.0667 -0.115163,-0.29565 -0.115163,-3.28039 0,-1.764787 0.01714,-3.208709 0.03812,-3.208709 0.02093,0 0.265263,0.123197 0.542908,0.273762 0.27764,0.150565 0.778724,0.419364 1.113518,0.597323 l 0.608715,0.323574 v 3.25237 c 0,1.78882 -0.0222,3.25064 -0.04936,3.24852 -0.02713,-0.002 -0.09377,-0.0309 -0.148067,-0.0639 z"
         id="path15130-1"
         inkscape:export-xdpi="139.442"
         inkscape:export-ydpi="139.442" />
      <path
         style="vector-effect:non-scaling-stroke;fill:#e76f51;fill-opacity:1;stroke:#000000;stroke-width:0;-inkscape-stroke:hairline"
         d="m -58.190743,102.91515 v -3.285491 l 0.246779,-0.166151 c 0.135723,-0.09139 0.417049,-0.289441 0.625161,-0.440116 l 0.378393,-0.273951 v 3.355359 3.35536 l -0.57581,0.34379 c -0.316699,0.18909 -0.598021,0.3557 -0.625167,0.37025 -0.02713,0.0145 -0.04936,-1.45203 -0.04936,-3.25905 z"
         id="path15169-7"
         inkscape:export-xdpi="139.442"
         inkscape:export-ydpi="139.442" />
      <path
         style="vector-effect:non-scaling-stroke;fill:#e76f51;fill-opacity:1;stroke:#000000;stroke-width:0;-inkscape-stroke:hairline"
         d="m -57.621679,97.391187 c -0.01701,-0.02713 -0.31491,-0.19566 -0.661952,-0.37448 -0.347046,-0.178825 -0.629458,-0.341695 -0.627592,-0.361941 0.0018,-0.02024 0.255239,-0.214485 0.563058,-0.431648 0.307813,-0.217167 0.617224,-0.435473 0.687576,-0.48513 0.124842,-0.08812 0.127917,-0.06874 0.127917,0.806137 0,0.842648 -0.01317,0.967943 -0.08901,0.847062 z"
         id="path15208-5"
         inkscape:export-xdpi="139.442"
         inkscape:export-ydpi="139.442" />
      <path
         style="vector-effect:non-scaling-stroke;fill:#e76f51;fill-opacity:1;stroke:#000000;stroke-width:0;-inkscape-stroke:hairline"
         d="m -65.955961,97.173431 c 0,-0.726011 0.0222,-1.307627 0.04936,-1.292474 0.13992,0.07809 1.736588,0.835712 1.761239,0.835712 0.01583,0 0.119194,0.05496 0.229655,0.122133 l 0.200833,0.122133 -0.511827,0.351573 c -0.281505,0.193366 -0.76065,0.538184 -1.064769,0.766256 -0.30412,0.228082 -0.57804,0.414687 -0.608715,0.414687 -0.03066,0 -0.05577,-0.594005 -0.05577,-1.32002 z"
         id="path15247-0"
         inkscape:export-xdpi="139.442"
         inkscape:export-ydpi="139.442" />
      <path
         style="vector-effect:non-scaling-stroke;fill:#1ebf90;fill-opacity:1;stroke:#000000;stroke-width:0;-inkscape-stroke:hairline"
         d="m -48.449085,129.19508 c -0.05861,-0.0706 -0.07788,-0.58838 -0.07285,-1.95776 l 0.0069,-1.86173 0.179954,-0.14732 0.179955,-0.14731 0.03288,1.98991 c 0.02722,1.64682 0.01697,2.00976 -0.05956,2.10507 -0.112572,0.14021 -0.163733,0.14388 -0.267251,0.0191 z"
         id="path15286-9"
         inkscape:export-xdpi="139.442"
         inkscape:export-ydpi="139.442" />
      <path
         style="vector-effect:non-scaling-stroke;fill:#1ebf90;fill-opacity:1;stroke:#000000;stroke-width:0;-inkscape-stroke:hairline"
         d="m -36.867946,118.45747 0.0013,-0.32064 0.811733,-0.60872 c 0.446469,-0.33479 0.830828,-0.60872 0.854158,-0.60872 0.02334,0 0.0424,0.13281 0.0424,0.29513 v 0.29513 l -0.773229,0.57066 c -0.425279,0.31388 -0.81025,0.59928 -0.855488,0.63424 -0.06328,0.0489 -0.08195,-0.0104 -0.08091,-0.25708 z"
         id="path15325-0"
         inkscape:export-xdpi="139.442"
         inkscape:export-ydpi="139.442" />
      <path
         style="vector-effect:non-scaling-stroke;fill:#1ebf90;fill-opacity:1;stroke:#000000;stroke-width:0;-inkscape-stroke:hairline"
         d="m -60.56395,132.86021 c -0.750902,-0.33689 -25.96701,-13.50466 -27.333032,-14.27322 -0.382739,-0.21534 -0.590466,-0.46526 -0.589763,-0.70958 6.5e-4,-0.24169 0.08353,-0.34728 1.353257,-1.72471 l 0.961639,-1.04321 0.136475,0.14816 c 0.237008,0.2573 2.887916,1.52894 3.128424,1.5007 0.17425,-0.0205 0.175246,-0.0228 1.436831,-3.46765 0.612799,-1.67326 1.256322,-3.30611 1.854758,-4.70618 1.117753,-2.61503 1.27805,-2.95453 1.523879,-3.22741 0.248593,-0.27595 1.463314,-1.1791 6.476556,-4.81528 l 4.087249,-2.964552 h 0.527428 0.527424 v 0.305712 c 0,0.16814 0.01444,0.515217 0.0321,0.771285 l 0.0321,0.465584 -1.273994,0.939811 c -2.705516,1.99581 -4.321825,3.20748 -4.532226,3.39756 -0.120517,0.10888 -0.219118,0.24199 -0.219118,0.29579 0,0.0587 -0.160804,0.22889 -0.401806,0.42532 -0.723012,0.58927 -0.674027,0.53376 -0.604908,0.68546 0.08165,0.17922 0.170172,0.23173 2.235552,1.32622 6.9922,3.70533 12.238404,6.44704 12.336286,6.44704 0.03446,0 1.120214,-0.78823 2.412763,-1.75162 1.292549,-0.96339 3.242107,-2.41642 4.332357,-3.22896 1.09025,-0.81254 2.107963,-1.59587 2.261582,-1.74073 0.273458,-0.25788 0.279311,-0.26959 0.279311,-0.55857 0,-0.33805 -0.02979,-0.36976 -0.627491,-0.66758 -0.424617,-0.21159 -0.522909,-0.29751 -0.522909,-0.45707 0,-0.11478 -0.240759,-0.24485 -2.627619,-1.41965 -1.44519,-0.71131 -2.701512,-1.32323 -2.791823,-1.3598 -0.118529,-0.048 -0.173071,-0.11084 -0.196091,-0.22594 -0.05263,-0.26314 -0.03685,-2.69938 0.01766,-2.733091 0.02726,-0.01685 2.93388,1.411559 6.45915,3.174241 l 6.409584,3.20488 -1.216985,0.79642 c -2.004937,1.31208 -2.298149,1.52796 -2.435708,1.79332 -0.08609,0.16605 -0.11266,0.28535 -0.09282,0.4167 0.03677,0.2434 0.792328,2.48672 1.954584,5.80327 1.399041,3.99224 1.303099,3.76495 1.589271,3.76495 0.180238,0 0.157636,0.0142 1.506492,-0.94509 2.748368,-1.95455 4.195348,-2.92723 4.266629,-2.86807 0.20099,0.16681 1.119337,1.63107 1.119337,1.78472 0,0.10492 -0.332601,0.36818 -9.203204,7.28451 -12.318686,9.60477 -12.989256,10.12498 -13.115354,10.1745 -0.170114,0.0668 -1.315892,0.0527 -1.473816,-0.0182 z m 1.206756,-4.07264 c 0.24758,-0.0742 0.546165,-0.31556 0.658092,-0.532 0.04663,-0.0902 0.124418,-0.30451 0.172867,-0.47632 l 0.08809,-0.31239 0.558435,-0.34255 c 0.860727,-0.52798 1.031312,-0.67085 1.229459,-1.02967 0.155306,-0.28124 0.23631,-0.35942 0.654803,-0.632 0.262663,-0.17107 0.692051,-0.43812 0.954195,-0.59344 l 0.47662,-0.2824 0.03293,-0.49739 c 0.0181,-0.27357 0.03306,-0.96774 0.03319,-1.54262 l 2.57e-4,-1.04521 -0.843005,-2.82431 c -0.463658,-1.55337 -0.881331,-2.89057 -0.928165,-2.97154 -0.138633,-0.2397 -0.600846,-0.55871 -0.809509,-0.55871 -0.201976,0 -0.802661,0.24079 -1.180177,0.47308 -0.212382,0.13067 -0.274805,0.21017 -0.418632,0.53311 -0.622965,1.39874 -4.529876,10.41062 -4.592823,10.59402 -0.06605,0.19245 -0.06696,0.23754 -0.0061,0.29677 0.03951,0.0384 0.71898,0.45977 1.509877,0.93636 l 1.438003,0.86655 h 0.386113 c 0.212365,0 0.475765,-0.0267 0.585332,-0.0595 z m -6.467209,-0.0655 c 0.40748,-0.17026 0.399398,-0.15284 3.519233,-7.58774 l 1.908979,-4.54931 -0.02277,-0.53048 c -0.01893,-0.44119 -0.04652,-0.57905 -0.163874,-0.81891 -0.206193,-0.42145 -0.454607,-0.61231 -1.437248,-1.10427 -1.340783,-0.67127 -3.30586,-1.69885 -3.463706,-1.81124 -0.085,-0.0605 -0.153646,-0.17014 -0.173787,-0.27749 -0.01832,-0.0976 -0.195246,-0.42266 -0.393192,-0.72238 -0.763647,-1.15625 -1.845653,-1.91486 -3.167337,-2.22063 -0.576613,-0.13341 -1.677005,-0.13141 -2.227893,0.004 l -0.397714,0.0978 -2.390372,-1.16119 -2.390378,-1.1612 -0.252601,0.0839 c -0.320405,0.10642 -0.648389,0.32418 -0.921592,0.61186 -0.169027,0.17798 -0.258976,0.35173 -0.42797,0.82669 -2.020786,5.67939 -3.206058,8.80791 -4.115134,10.86189 -0.323476,0.73087 -0.2591,1.22901 0.19296,1.49299 0.123197,0.0719 2.188831,1.13637 4.590294,2.36538 2.401456,1.22901 5.76638,2.95317 7.477597,3.83146 1.711221,0.87829 3.24073,1.65099 3.398911,1.71711 0.331781,0.13868 0.609426,0.15544 0.857586,0.0517 z"
         id="path62529"
         inkscape:export-xdpi="139.442"
         inkscape:export-ydpi="139.442" />
      <path
         style="vector-effect:non-scaling-stroke;fill:#1ebf90;fill-opacity:1;stroke:#000000;stroke-width:0;-inkscape-stroke:hairline"
         d="m -62.315695,141.28522 c -0.871468,-0.45453 -16.438033,-8.3561 -19.16428,-9.72775 l -1.385368,-0.69702 -0.194606,-0.94124 c -0.735261,-3.55619 -1.205795,-5.93845 -1.178356,-5.96587 0.01763,-0.0177 0.822126,0.37032 1.787727,0.86218 0.965594,0.49185 1.79234,0.89427 1.837213,0.89427 0.08818,0 0.416072,-0.21268 0.832502,-0.53998 l 0.261455,-0.20549 0.06082,1.98069 c 0.08593,2.79783 0.222371,5.06254 0.31394,5.21069 0.0162,0.0262 0.265429,0.20429 0.553913,0.39583 0.842468,0.55938 0.748141,0.51569 0.871787,0.4038 0.09977,-0.0903 0.108151,-0.15603 0.108151,-0.848 0,-0.41256 0.0059,-0.7497 0.01308,-0.7492 0.0072,4.4e-4 0.248385,0.0707 0.535991,0.15596 0.287592,0.0853 0.598903,0.15546 0.691786,0.15596 0.197293,6.5e-4 0.230892,-0.0541 0.58925,-0.96647 0.124257,-0.31636 0.247969,-0.60389 0.274927,-0.63893 0.03682,-0.048 0.115748,-0.0212 0.318486,0.10819 0.402261,0.25666 2.642419,1.57295 2.888931,1.69751 l 0.214083,0.10815 -0.227152,0.45245 c -0.124935,0.24883 -0.227152,0.50756 -0.227152,0.57495 0,0.0674 0.124238,0.30639 0.276091,0.53112 0.582439,0.862 0.525088,0.80958 1.320374,1.2068 l 0.733672,0.36643 0.06266,0.93412 0.06267,0.93412 0.154203,0.13073 c 0.08481,0.0719 0.422406,0.2778 0.750213,0.45754 0.592111,0.32469 0.84134,0.39255 0.969809,0.26407 0.04707,-0.0471 0.06275,-0.69372 0.06275,-2.5884 0,-1.38911 0.01579,-2.52565 0.03507,-2.52565 0.01927,0 1.378201,0.69268 3.019801,1.53927 3.667619,1.89145 3.977352,2.04127 4.50116,2.17731 0.55655,0.14455 1.599904,0.19005 2.06549,0.0901 0.318534,-0.0684 0.412866,-0.12867 1.501276,-0.95937 l 1.161387,-0.88639 0.0022,-0.99849 c 0.0026,-1.15023 0.06596,-1.00752 -0.638478,-1.43379 -0.25165,-0.15228 -0.456483,-0.29088 -0.455183,-0.30801 0.0031,-0.0386 5.077189,-3.98979 5.096418,-3.96842 0.0076,0.009 0.02246,0.96847 0.03289,2.13325 l 0.01898,2.11778 -0.358658,1.09812 c -0.224215,0.68648 -0.361425,1.19523 -0.366036,1.3572 -0.0068,0.2373 0.0046,0.26339 0.134411,0.31007 0.129142,0.0464 0.189785,0.0141 0.679782,-0.36166 0.534733,-0.41011 4.841855,-3.7877 5.466319,-4.28661 0.385306,-0.30785 0.42005,-0.38058 1.02764,-2.15105 l 0.397383,-1.15794 0.0031,-2.29326 0.0035,-2.29326 2.692318,-2.09165 c 1.480773,-1.15039 2.901168,-2.25245 3.156429,-2.44901 l 0.464106,-0.35738 0.579104,0.32273 0.5791,0.32272 v 0.36801 0.36801 l -0.169945,-0.0382 c -0.09347,-0.021 -0.219653,-0.0496 -0.280406,-0.0636 -0.07406,-0.017 -0.173128,0.0297 -0.300673,0.14168 l -0.190213,0.16701 v 1.014 1.014 l -0.422706,1.11144 c -0.232485,0.61129 -0.610695,1.58794 -0.840463,2.17033 l -0.417756,1.05889 h -1.102545 -1.102545 l -1.055013,0.75599 -1.055013,0.75599 -0.116236,0.40748 c -0.06393,0.22412 -0.259601,0.88988 -0.434823,1.47945 l -0.318583,1.07197 -0.345179,0.2633 c -0.189846,0.14482 -2.168824,1.66382 -4.397725,3.37557 -2.2289,1.71175 -4.396045,3.37456 -4.815882,3.69512 l -0.763332,0.58285 -0.447157,-0.31113 c -0.245937,-0.17113 -0.481423,-0.31113 -0.523303,-0.31113 -0.09179,0 -0.330184,0.21421 -2.418218,2.17287 -1.882526,1.76588 -2.496269,2.32693 -2.53466,2.31704 -0.01518,-0.004 -0.427622,-0.21576 -0.916542,-0.47078 z"
         id="path62568"
         inkscape:export-xdpi="139.442"
         inkscape:export-ydpi="139.442" />
      <path
         style="vector-effect:non-scaling-stroke;fill:#ffffff;fill-opacity:1;stroke:#000000;stroke-width:0;-inkscape-stroke:hairline"
         d="m -83.415086,114.00676 c -0.503302,-0.22403 -0.956025,-0.43052 -1.006044,-0.45888 -0.07771,-0.044 -0.03578,-0.0929 0.287599,-0.33541 0.908257,-0.68104 2.872466,-2.09893 2.885717,-2.08308 0.03142,0.0376 -1.101925,3.08274 -1.19285,3.20495 -0.05139,0.0691 -0.181888,0.0252 -0.974422,-0.32758 z"
         id="path82138"
         inkscape:export-xdpi="139.442"
         inkscape:export-ydpi="139.442" />
      <path
         style="vector-effect:non-scaling-stroke;fill:#ffffff;fill-opacity:1;stroke:#000000;stroke-width:0;-inkscape-stroke:hairline"
         d="m -84.395545,115.58087 c -1.028077,-0.49114 -1.268051,-0.62548 -1.268051,-0.70984 0,-0.25355 0.139805,-0.54654 0.372109,-0.77983 l 0.244281,-0.24533 1.038297,0.45913 c 0.571061,0.25253 1.114214,0.49854 1.207,0.5467 l 0.168701,0.0876 -0.205027,0.58207 c -0.112769,0.32013 -0.223977,0.60079 -0.247136,0.62369 -0.02316,0.0229 -0.612741,-0.23097 -1.310174,-0.56415 z"
         id="path82177"
         inkscape:export-xdpi="139.442"
         inkscape:export-ydpi="139.442" />
      <path
         style="vector-effect:non-scaling-stroke;fill:#ffffff;fill-opacity:1;stroke:#000000;stroke-width:0;-inkscape-stroke:hairline"
         d="m -77.768072,119.08729 c -2.355073,-1.20801 -2.562208,-1.34688 -2.807139,-1.88188 l -0.127094,-0.27761 0.193051,-0.56357 c 0.55939,-1.633 2.071813,-5.85503 2.880363,-8.04067 0.104931,-0.28366 0.427405,-0.64499 0.702676,-0.78734 0.148523,-0.0768 0.199128,-0.0801 0.358592,-0.0232 0.167492,0.0597 1.181082,0.54132 3.728374,1.77143 l 0.875874,0.42297 -0.002,3.02048 c -6.51e-4,1.66127 -0.02231,3.18012 -0.04742,3.37524 -0.08177,0.6343 -0.348488,0.8477 -1.255691,1.00465 -0.906891,0.15689 -1.535712,0.46259 -2.135078,1.03797 -0.419455,0.40267 -0.65129,0.71678 -0.893925,1.21112 l -0.190124,0.38736 -1.280724,-0.65693 z"
         id="path82216"
         inkscape:export-xdpi="139.442"
         inkscape:export-ydpi="139.442" />
      <path
         style="vector-effect:non-scaling-stroke;fill:#ffffff;fill-opacity:1;stroke:#000000;stroke-width:0;-inkscape-stroke:hairline"
         d="m -72.094099,121.99244 c -2.460004,-1.26069 -3.675558,-1.89844 -3.820672,-2.00454 -0.07772,-0.0569 -0.06561,-0.10279 0.125923,-0.4779 0.560405,-1.09752 1.466275,-1.7415 2.679617,-1.90495 0.748167,-0.10077 1.205457,-0.38845 1.480599,-0.93142 l 0.125565,-0.24779 0.03871,-3.40873 0.03871,-3.40873 0.240982,-0.0413 c 0.132539,-0.0227 0.558649,-0.0396 0.946908,-0.0374 0.759005,0.005 1.197475,0.0917 1.80427,0.36003 0.853199,0.37732 1.661342,1.1324 2.162609,2.0206 l 0.164104,0.29077 v 3.91348 3.91349 l -0.237758,0.22781 c -0.16283,0.15602 -0.472908,0.34115 -0.983963,0.58748 -0.435302,0.20982 -0.886359,0.47164 -1.08259,0.6284 -0.425516,0.33992 -0.863649,0.88469 -1.093304,1.35941 -0.0981,0.20279 -0.191473,0.36838 -0.207488,0.36797 -0.01601,-4.2e-4 -1.088006,-0.54341 -2.382209,-1.20665 z"
         id="path82255"
         inkscape:export-xdpi="139.442"
         inkscape:export-ydpi="139.442" />
      <path
         style="vector-effect:non-scaling-stroke;fill:#ffffff;fill-opacity:1;stroke:#000000;stroke-width:0;-inkscape-stroke:hairline"
         d="m -67.429241,124.37234 c -0.943046,-0.47365 -1.727445,-0.89458 -1.743108,-0.93539 -0.0542,-0.14125 0.363176,-0.82923 0.746598,-1.23065 0.398037,-0.41672 0.757923,-0.66284 1.274033,-0.87131 0.706035,-0.28518 1.229642,-0.66154 1.411781,-1.01477 0.08955,-0.17365 0.09888,-0.43632 0.134184,-3.77802 0.02495,-2.36066 0.05606,-3.5914 0.09082,-3.5914 0.07975,0 3.476655,1.73863 3.915229,2.00392 0.210167,0.12713 0.433698,0.30622 0.496736,0.39797 0.171903,0.25021 0.253521,0.70714 0.177477,0.99362 -0.116978,0.44071 -1.951683,4.89445 -2.97408,7.21956 -0.336509,0.76529 -0.49469,1.06406 -0.634055,1.1976 -0.238003,0.22807 -0.762203,0.47643 -0.99796,0.47283 -0.128727,-0.002 -0.691632,-0.25824 -1.897652,-0.86396 z"
         id="path82294"
         inkscape:export-xdpi="139.442"
         inkscape:export-ydpi="139.442" />
      <path
         style="vector-effect:non-scaling-stroke;fill:#ffffff;fill-opacity:1;stroke:#000000;stroke-width:0;-inkscape-stroke:hairline"
         d="m -66.55126,128.17391 c -0.244968,-0.11225 -10.351028,-5.28417 -13.014589,-6.6604 -2.136255,-1.10378 -2.382982,-1.23979 -2.453525,-1.35254 -0.07102,-0.11351 0.02986,-0.41029 0.555298,-1.63388 l 0.425102,-0.9899 0.10614,0.15141 c 0.215905,0.30796 0.554655,0.58071 1.107443,0.89167 1.528686,0.85994 13.445419,6.91007 13.924848,7.06965 0.415021,0.13814 0.50613,0.13909 0.848968,0.009 0.149584,-0.0569 0.278377,-0.0969 0.286202,-0.0891 0.01684,0.0169 -0.44714,1.15106 -0.77172,1.88655 -0.356747,0.80836 -0.537377,0.9362 -1.014167,0.71773 z"
         id="path82333"
         inkscape:export-xdpi="139.442"
         inkscape:export-ydpi="139.442" />
      <path
         style="vector-effect:non-scaling-stroke;fill:#ffffff;fill-opacity:1;stroke:#000000;stroke-width:0;-inkscape-stroke:hairline"
         d="m -60.061453,128.33917 c -0.113785,-0.0291 -1.203158,-0.65183 -2.045077,-1.16895 -0.406416,-0.24962 -0.570447,-0.37871 -0.558993,-0.43993 0.02356,-0.12597 0.559307,-1.40175 1.52656,-3.63531 0.466985,-1.07836 0.957083,-2.2136 1.089112,-2.52277 0.132025,-0.30917 0.254921,-0.56212 0.2731,-0.56212 0.05323,0 0.111119,5.89233 0.07059,7.18522 -0.03625,1.15573 -0.03943,1.18119 -0.146736,1.17526 -0.06034,-0.003 -0.154186,-0.0174 -0.208553,-0.0314 z"
         id="path82372"
         inkscape:export-xdpi="139.442"
         inkscape:export-ydpi="139.442" />
      <path
         style="vector-effect:non-scaling-stroke;fill:#ffffff;fill-opacity:1;stroke:#000000;stroke-width:0;-inkscape-stroke:hairline"
         d="m -59.168338,127.30467 c -0.01958,-0.37388 -0.03559,-2.4799 -0.03554,-4.68004 l 7.4e-5,-4.00026 0.545497,-1.25257 0.545498,-1.25257 0.330102,-0.16709 c 0.290808,-0.1472 0.334328,-0.15683 0.36564,-0.0808 0.01954,0.0474 0.0372,2.39487 0.03921,5.21653 l 0.0035,5.13029 -0.745149,0.45176 -0.745145,0.45177 -0.13411,0.43141 -0.134114,0.4314 z"
         id="path82411"
         inkscape:export-xdpi="139.442"
         inkscape:export-ydpi="139.442" />
      <path
         style="vector-effect:non-scaling-stroke;fill:#ffffff;fill-opacity:1;stroke:#000000;stroke-width:0;-inkscape-stroke:hairline"
         d="m -56.849632,120.59836 c 0.0018,-5.28516 -0.01592,-5.07549 0.337315,-3.98288 0.09895,0.30608 0.475329,1.54104 0.836402,2.74436 l 0.6565,2.18785 -0.01391,1.35843 -0.01391,1.35843 -0.862803,0.5363 c -0.474539,0.29497 -0.880449,0.53779 -0.902017,0.53961 -0.02159,0.002 -0.03847,-2.13213 -0.03756,-4.7421 z"
         id="path82450"
         inkscape:export-xdpi="139.442"
         inkscape:export-ydpi="139.442" />
      <path
         style="vector-effect:non-scaling-stroke;fill:#ffffff;fill-opacity:1;stroke:#000000;stroke-width:0;-inkscape-stroke:hairline"
         d="m -44.288447,114.88785 c -0.380111,-1.10851 -0.697377,-2.04907 -0.705031,-2.09014 -0.01274,-0.0682 1.51296,-1.07339 1.83416,-1.20837 0.361514,-0.15192 0.642648,0.35434 1.763254,3.17519 l 0.170032,0.42802 -0.792572,0.5599 c -0.435918,0.30795 -0.969461,0.69288 -1.185651,0.85539 l -0.393078,0.29549 z"
         id="path82489"
         inkscape:export-xdpi="139.442"
         inkscape:export-ydpi="139.442" />
      <path
         style="vector-effect:non-scaling-stroke;fill:#ffffff;fill-opacity:1;stroke:#000000;stroke-width:0;-inkscape-stroke:hairline"
         d="m -41.370344,113.45517 c -0.876401,-2.09246 -0.979134,-2.27032 -1.372897,-2.3769 -0.346719,-0.0938 -0.523786,-0.022 -1.715355,0.69615 -0.409605,0.24685 -0.7528,0.44076 -0.762648,0.43092 -0.0362,-0.0362 -1.370006,-3.94343 -1.435761,-4.20589 -0.05751,-0.22953 -0.05651,-0.2854 0.0064,-0.36273 0.07453,-0.0915 2.658489,-1.81367 3.281396,-2.18695 0.187138,-0.11214 0.350562,-0.17855 0.376051,-0.15281 0.02477,0.025 0.489377,0.78675 1.032415,1.69269 0.543038,0.90594 1.541071,2.54133 2.217852,3.63422 0.676786,1.09287 1.29155,2.10226 1.366151,2.24307 l 0.135632,0.25603 -0.114989,0.0888 c -0.20447,0.15786 -1.834356,1.28838 -2.131493,1.47846 l -0.288283,0.18442 z"
         id="path82528"
         inkscape:export-xdpi="139.442"
         inkscape:export-ydpi="139.442" />
      <path
         style="vector-effect:non-scaling-stroke;fill:#ffffff;fill-opacity:1;stroke:#000000;stroke-width:0;-inkscape-stroke:hairline"
         d="m -51.779074,133.93688 c 0,-0.0262 0.117654,-0.39867 0.261455,-0.82792 l 0.261454,-0.78044 2.01e-4,-2.43349 1.96e-4,-2.43348 1.032547,-0.79629 1.032551,-0.79628 0.03323,0.66555 c 0.01827,0.36606 0.03598,1.11264 0.0393,1.65908 0.0068,1.11523 0.0427,1.25981 0.366577,1.47618 0.32543,0.2174 0.877375,0.12274 1.087315,-0.18648 0.08681,-0.12786 0.09671,-0.33554 0.120715,-2.53147 l 0.02617,-2.39218 1.045819,-0.81674 1.045819,-0.81675 0.014,2.03238 0.014,2.03238 -0.458488,1.35044 -0.458485,1.35044 -2.509964,1.96676 c -1.380483,1.08173 -2.609972,2.04755 -2.732205,2.14628 -0.122229,0.0987 -0.222235,0.15815 -0.222235,0.13203 z"
         id="path82567"
         inkscape:export-xdpi="139.442"
         inkscape:export-ydpi="139.442" />
      <path
         style="vector-effect:non-scaling-stroke;fill:#ffffff;fill-opacity:1;stroke:#000000;stroke-width:0;-inkscape-stroke:hairline"
         d="m -78.460521,132.02894 c -0.136605,-0.0867 -0.248262,-0.19684 -0.248119,-0.24474 1.5e-4,-0.0479 -0.03467,-0.49889 -0.07734,-1.00219 -0.04267,-0.50329 -0.114162,-2.13811 -0.158847,-3.63293 -0.08445,-2.82537 -0.09818,-2.95572 -0.311161,-2.95572 -0.04072,0 -0.358006,0.21178 -0.705044,0.47061 -0.347051,0.25884 -0.642613,0.47062 -0.656814,0.47062 -0.01425,0 -0.02583,-0.21813 -0.02583,-0.48473 v -0.48474 l 0.462364,-0.34633 0.462364,-0.34633 1.02988,0.54046 c 1.425043,0.74781 2.081116,1.10261 2.194568,1.18679 0.08847,0.0656 0.02654,0.12056 -0.732067,0.64962 -0.455794,0.31786 -0.88165,0.6104 -0.946365,0.65009 -0.112079,0.0688 -0.117655,0.10374 -0.117655,0.73873 v 0.66655 l 0.37911,0.1898 c 0.208507,0.1044 0.386213,0.19611 0.394891,0.20382 0.0087,0.008 -0.119711,0.2862 -0.285316,0.61888 l -0.301091,0.60488 -0.219144,-0.0301 c -0.19069,-0.0262 -0.229507,-0.0139 -0.298984,0.094 -0.08359,0.12987 -0.112301,0.36703 -0.09694,0.80086 0.0085,0.24 0.02973,0.27842 0.296753,0.53705 l 0.287599,0.27856 v 0.49569 c 0,0.27263 -0.01763,0.49405 -0.03923,0.49205 -0.02153,-0.002 -0.150988,-0.0746 -0.287593,-0.16129 z"
         id="path82606"
         inkscape:export-xdpi="139.442"
         inkscape:export-ydpi="139.442" />
      <path
         style="vector-effect:non-scaling-stroke;fill:#ffffff;fill-opacity:1;stroke:#000000;stroke-width:0;-inkscape-stroke:hairline"
         d="m -72.481073,131.16943 c -0.184081,-0.10228 -0.854712,-0.4937 -1.490292,-0.8698 -1.273575,-0.75364 -1.509073,-0.87433 -1.709345,-0.87604 -0.15495,-10e-4 -0.146812,-0.0158 -0.527476,0.9401 -0.143162,0.3595 -0.281139,0.67512 -0.306608,0.70138 -0.05972,0.0616 -1.116217,-0.21092 -1.343526,-0.34652 -0.190683,-0.11376 -0.379961,-0.33312 -0.379961,-0.44035 0,-0.0467 0.06317,-0.0714 0.182708,-0.0714 h 0.182708 l 0.416957,-0.83268 0.416957,-0.8327 1.375668,0.64573 c 0.756625,0.35516 1.440631,0.66204 1.520015,0.68196 0.170127,0.0427 0.447057,-0.12719 1.102186,-0.67615 0.504661,-0.42288 0.685327,-0.45982 0.731963,-0.14964 0.05256,0.3496 0.197781,2.15089 0.179995,2.23267 -0.01373,0.0632 -0.08531,0.0416 -0.351949,-0.10658 z"
         id="path82645"
         inkscape:export-xdpi="139.442"
         inkscape:export-ydpi="139.442" />
      <path
         style="vector-effect:non-scaling-stroke;fill:#1ebf90;fill-opacity:1;stroke:#000000;stroke-width:0;-inkscape-stroke:hairline"
         d="m -70.487822,130.79572 -0.429736,-0.24236 v -1.21909 c 0,-0.6705 0.01509,-1.21909 0.03357,-1.21909 0.05562,0 2.109651,1.06987 2.10826,1.09811 -8.46e-4,0.0144 -0.223169,0.18801 -0.494358,0.38584 -0.670584,0.4892 -0.667365,0.48476 -0.703117,0.97134 -0.01671,0.22719 -0.04261,0.42534 -0.05763,0.44035 -0.015,0.015 -0.220653,-0.0818 -0.457007,-0.2151 z"
         id="path82684"
         inkscape:export-xdpi="139.442"
         inkscape:export-ydpi="139.442" />
      <path
         style="vector-effect:non-scaling-stroke;fill:#1ebf90;fill-opacity:1;stroke:#000000;stroke-width:0;-inkscape-stroke:hairline"
         d="m -69.154597,136.99207 c -0.263387,-0.14193 -0.415017,-0.25691 -0.429493,-0.32565 -0.02469,-0.11733 -0.130773,-1.61736 -0.130773,-1.84936 0,-0.10136 -0.143357,-0.34228 -0.468058,-0.78663 -0.428459,-0.58632 -0.463568,-0.6524 -0.41498,-0.78099 0.09501,-0.25139 0.730867,-1.4216 0.772463,-1.4216 0.02224,0 0.29155,0.13112 0.59843,0.29139 l 0.557963,0.29138 v 2.4016 c 0,1.32087 -0.01766,2.40107 -0.03921,2.40042 -0.02159,-4.4e-4 -0.222419,-0.0999 -0.446334,-0.22056 z"
         id="path82723"
         inkscape:export-xdpi="139.442"
         inkscape:export-ydpi="139.442" />
      <path
         style="vector-effect:non-scaling-stroke;fill:#1ebf90;fill-opacity:1;stroke:#000000;stroke-width:0;-inkscape-stroke:hairline"
         d="m -71.584266,132.97678 c -0.179748,-0.0828 -0.326813,-0.16708 -0.326813,-0.18723 0,-0.0202 0.205242,-0.4074 0.456106,-0.86054 l 0.456112,-0.8239 0.158306,0.0818 c 0.08707,0.045 0.246863,0.14033 0.355102,0.21191 l 0.19679,0.13012 -0.255288,0.47629 c -0.369365,0.68909 -0.634651,1.13048 -0.67678,1.12604 -0.02017,-0.002 -0.183787,-0.0717 -0.363535,-0.15446 z"
         id="path82762"
         inkscape:export-xdpi="139.442"
         inkscape:export-ydpi="139.442" />
      <path
         style="vector-effect:non-scaling-stroke;fill:#1ebf90;fill-opacity:1;stroke:#000000;stroke-width:0;-inkscape-stroke:hairline"
         d="m -70.973341,134.15621 c -0.229799,-0.11973 -0.658778,-0.53313 -0.606983,-0.58493 0.07759,-0.0776 0.762187,0.40458 0.875769,0.61682 0.0671,0.12537 0.02296,0.12013 -0.268786,-0.0319 z"
         id="path86699"
         inkscape:export-xdpi="139.442"
         inkscape:export-ydpi="139.442" />
      <path
         style="vector-effect:non-scaling-stroke;fill:#1ebf90;fill-opacity:1;stroke:#000000;stroke-width:0;-inkscape-stroke:hairline"
         d="m -71.6165,130.93815 c -0.01503,-0.0715 -0.04215,-0.33 -0.06024,-0.57446 -0.01808,-0.24446 -0.06637,-0.73861 -0.107259,-1.09812 -0.08525,-0.74955 -0.150175,-0.85463 -0.566638,-0.91709 -0.331542,-0.0497 -0.562402,0.045 -0.974903,0.40005 -0.196753,0.16934 -0.372194,0.30789 -0.389876,0.30789 -0.01769,0 -0.02485,-0.0856 -0.01594,-0.19019 0.01561,-0.18278 0.04951,-0.21254 0.871229,-0.76531 l 0.854991,-0.57513 0.295406,0.14111 0.295405,0.14112 -0.02615,1.52622 c -0.01763,1.02858 -0.04612,1.56007 -0.08742,1.63006 -0.059,0.1 -0.06226,0.099 -0.08862,-0.0262 z"
         id="path86816"
         inkscape:export-xdpi="139.442"
         inkscape:export-ydpi="139.442" />
      <path
         style="vector-effect:non-scaling-stroke;fill:#1ebf90;fill-opacity:1;stroke:#000000;stroke-width:0;-inkscape-stroke:hairline"
         d="m -74.368755,128.15586 c -0.129422,-0.0591 -0.881871,-0.3997 -1.672121,-0.75698 -0.790244,-0.35728 -1.44739,-0.66018 -1.460329,-0.67312 -0.03292,-0.0329 0.07555,-0.11318 0.926023,-0.68582 l 0.748011,-0.50366 0.193227,0.0902 c 0.695371,0.32474 3.038865,1.58271 3.025588,1.62412 -0.02088,0.0652 -1.40372,1.01821 -1.472799,1.01502 -0.02875,-0.001 -0.158183,-0.0507 -0.2876,-0.1098 z"
         id="path86855"
         inkscape:export-xdpi="139.442"
         inkscape:export-ydpi="139.442" />
      <path
         style="vector-effect:non-scaling-stroke;fill:#1ebf90;fill-opacity:1;stroke:#000000;stroke-width:0;-inkscape-stroke:hairline"
         d="m -81.584905,123.3117 c -0.330736,-0.16753 -1.530813,-0.78772 -2.666834,-1.37819 -1.13602,-0.59048 -2.747889,-1.41943 -3.581933,-1.84213 -0.834038,-0.42271 -1.569384,-0.82702 -1.634085,-0.89846 -0.06473,-0.0714 -0.117662,-0.17947 -0.117662,-0.24007 0,-0.13547 0.254006,-0.53928 0.468473,-0.74475 0.142648,-0.13666 0.159022,-0.14162 0.159022,-0.0482 0,0.22565 0.295783,0.58013 0.662558,0.79403 0.547811,0.31949 2.238655,1.21687 5.141735,2.72887 1.452385,0.75644 2.70768,1.41576 2.789543,1.46515 l 0.14886,0.0898 -0.304096,0.19021 c -0.167245,0.10462 -0.340123,0.18979 -0.384164,0.18928 -0.04404,-4.4e-4 -0.350675,-0.138 -0.681417,-0.30553 z"
         id="path91609"
         inkscape:export-xdpi="139.442"
         inkscape:export-ydpi="139.442" />
      <path
         style="vector-effect:non-scaling-stroke;fill:#1ebf90;fill-opacity:1;stroke:#000000;stroke-width:0;-inkscape-stroke:hairline"
         d="m -60.347612,134.46964 c -0.440418,-0.17405 -2.433637,-1.21925 -2.573338,-1.3494 -0.06282,-0.0585 -0.09905,-0.14258 -0.08485,-0.19687 0.01435,-0.0548 -0.02229,-0.13786 -0.08704,-0.19712 -0.0615,-0.0563 -1.170704,-0.67197 -2.464901,-1.36816 -1.294202,-0.69619 -2.501874,-1.34803 -2.683717,-1.44853 l -0.330625,-0.18274 0.169343,-0.12493 0.169343,-0.12495 0.788773,0.41319 c 3.161737,1.65618 6.132685,3.19621 6.462337,3.34983 l 0.392184,0.18275 h 0.810508 c 0.544002,0 0.84727,-0.0211 0.922312,-0.0641 0.06149,-0.0353 0.410947,-0.28904 0.776569,-0.564 l 0.664761,-0.49994 0.243106,0.14161 c 0.399821,0.2329 0.581668,0.35673 0.582353,0.39656 8.46e-4,0.0404 -0.837475,0.76964 -1.437353,1.25055 -0.559813,0.44879 -0.637806,0.47741 -1.359564,0.49896 -0.572173,0.0171 -0.656827,0.007 -0.96021,-0.11274 z"
         id="path91648"
         inkscape:export-xdpi="139.442"
         inkscape:export-ydpi="139.442" />
      <path
         style="vector-effect:non-scaling-stroke;fill:#1ebf90;fill-opacity:1;stroke:#000000;stroke-width:0;-inkscape-stroke:hairline"
         d="m -37.532488,117.49484 c -0.171079,-0.091 -0.354064,-0.19519 -0.406634,-0.23163 -0.105555,-0.0731 -0.206002,0.0232 1.052923,-1.01012 0.424054,-0.34807 0.543906,-0.47685 0.591443,-0.63552 0.06575,-0.21946 0.03524,-0.46848 -0.08586,-0.70055 -0.04349,-0.0834 -0.06976,-0.16092 -0.05836,-0.17232 0.03611,-0.0361 0.845963,0.59826 1.045082,0.81866 0.157767,0.17463 0.190749,0.25015 0.189354,0.43354 l -0.0018,0.22209 -0.934721,0.69265 c -0.514094,0.38095 -0.967515,0.70522 -1.007602,0.72061 -0.04008,0.0154 -0.212854,-0.0464 -0.383932,-0.13741 z"
         id="path91687"
         inkscape:export-xdpi="139.442"
         inkscape:export-ydpi="139.442" />
      <path
         style="vector-effect:non-scaling-stroke;fill:#1ebf90;fill-opacity:1;stroke:#000000;stroke-width:0;-inkscape-stroke:hairline"
         d="m -84.29453,130.13397 c -0.411792,-0.21037 -0.780447,-0.41535 -0.819225,-0.4555 -0.03877,-0.0402 -0.235798,-0.81423 -0.43782,-1.72016 -0.656599,-2.94439 -1.164305,-5.29237 -1.147821,-5.30826 0.0088,-0.009 0.416151,0.18813 0.905076,0.43706 l 0.888942,0.45261 0.06861,0.31375 c 0.08075,0.3692 1.28894,6.24843 1.335179,6.49715 0.01737,0.0935 0.01451,0.16903 -0.0065,0.1679 -0.02082,-0.001 -0.374835,-0.17417 -0.786627,-0.38455 z"
         id="path91726"
         inkscape:export-xdpi="139.442"
         inkscape:export-ydpi="139.442" />
    </g>
  </g>
  <g
     inkscape:label="Text"
     inkscape:groupmode="layer"
     id="layer1"
     transform="translate(76.082383,-96.17069)">
    <g
       id="g15786"
       inkscape:export-xdpi="139.442"
       inkscape:export-ydpi="139.442"
       transform="matrix(0.65052971,0,0,0.65052971,-26.588532,33.608799)">
      <g
         id="g1332"
         transform="matrix(0.56739383,0,0,-0.56739547,151.19409,133.03742)"
         
         inkscape:export-xdpi="139.44188"
         inkscape:export-ydpi="139.44188">
        <path
           d="M 0,0 C -0.634,0.237 -1.28,0.461 -1.952,0.655 -1.28,0.461 -0.634,0.237 0,0"
           style="fill:#001379;fill-opacity:1;fill-rule:nonzero;stroke:none"
           id="path1334" />
      </g>
      <g
         id="g1336"
         transform="matrix(0.56739383,0,0,-0.56739547,152.11731,130.62201)"
         
         inkscape:export-xdpi="139.44188"
         inkscape:export-ydpi="139.44188">
        <path
           d="M 0,0 V 0 C -0.103,-0.078 -0.222,-0.171 -0.319,-0.244 -0.222,-0.171 -0.103,-0.078 0,0"
           style="fill:#001379;fill-opacity:1;fill-rule:nonzero;stroke:none"
           id="path1338" />
      </g>
      <g
         id="g1340"
         transform="matrix(0.56739383,0,0,-0.56739547,135.71594,117.78413)"
         
         inkscape:export-xdpi="139.44188"
         inkscape:export-ydpi="139.44188">
        <path
           d="M 0,0 V 0 C 1.45,0 2.795,-0.039 4.035,-0.118 2.795,-0.039 1.45,0 0,0"
           style="fill:#001379;fill-opacity:1;fill-rule:nonzero;stroke:none"
           id="path1342" />
      </g>
      <path
         d="m 130.3494,117.78384 v 0 10.80434 0 z"
         style="fill:#001379;fill-opacity:1;fill-rule:nonzero;stroke:none;stroke-width:0.567394"
         id="path1344"
         
         inkscape:export-xdpi="139.44188"
         inkscape:export-ydpi="139.44188" />
      <g
         id="g1346"
         transform="matrix(0.56739383,0,0,-0.56739547,144.55978,148.00627)"
         
         inkscape:export-xdpi="139.44188"
         inkscape:export-ydpi="139.44188">
        <path
           d="M 0,0 C 0.396,0.152 0.77,0.314 1.123,0.488 1.475,0.661 1.805,0.855 2.113,1.071 1.805,0.855 1.475,0.661 1.123,0.488 0.77,0.314 0.396,0.152 0,0"
           style="fill:#001379;fill-opacity:1;fill-rule:nonzero;stroke:none"
           id="path1348" />
      </g>
      <path
         d="m 130.3494,148.91002 v 0 -11.5204 0 z"
         style="fill:#001379;fill-opacity:1;fill-rule:nonzero;stroke:none;stroke-width:0.567394"
         id="path1350"
         
         inkscape:export-xdpi="139.44188"
         inkscape:export-ydpi="139.44188" />
      <g
         id="g1352"
         transform="matrix(0.56739383,0,0,-0.56739547,185.49663,110.41042)"
         
         inkscape:export-xdpi="139.44188"
         inkscape:export-ydpi="139.44188">
        <path
           d="M 0,0 C 1.451,-0.541 2.845,-1.142 4.182,-1.803 2.845,-1.142 1.451,-0.541 0,0"
           style="fill:#001379;fill-opacity:1;fill-rule:nonzero;stroke:none"
           id="path1354" />
      </g>
      <g
         id="g1356"
         transform="matrix(0.56739383,0,0,-0.56739547,36.291913,130.44947)"
         style="fill:#ffffff;fill-opacity:1"
         
         inkscape:export-xdpi="139.44188"
         inkscape:export-ydpi="139.44188">
        <path
           d="M 0,0 13.191,14.662 V 38.969 H 10.719 L -22.574,2.776 v 36.193 h -19.673 v -88.152 h 19.673 v 24.97 l 8.828,9.838 25.853,-34.808 h 1.084 v 30.701 C 6.962,-9.724 2.56,-3.557 0,0"
           style="fill:#ffffff;fill-opacity:1;fill-rule:nonzero;stroke:none"
           id="path1358" />
      </g>
      <g
         id="g1360"
         transform="matrix(0.56739383,0,0,-0.56739547,46.398842,108.33863)"
         style="fill:#ffffff;fill-opacity:1"
         
         inkscape:export-xdpi="139.44188"
         inkscape:export-ydpi="139.44188">
        <path
           d="m 0,0 v -88.152 h 17.246 41.471 v 17.404 H 19.674 v 18.285 h 39.043 v 16.774 H 19.674 V -17.53 H 58.717 V 0 H 17.246 Z"
           style="fill:#ffffff;fill-opacity:1;fill-rule:nonzero;stroke:none"
           id="path1362" />
      </g>
      <g
         id="g1364"
         transform="matrix(0.56739383,0,0,-0.56739547,82.461993,108.33863)"
         style="fill:#ffffff;fill-opacity:1"
         
         inkscape:export-xdpi="139.44188"
         inkscape:export-ydpi="139.44188">
        <path
           d="m 0,0 h -0.221 v -88.152 h 1.608 v 0 h 58.717 v 17.404 H 19.452 v 18.285 h 39.473 v 16.774 H 19.452 V -17.53 H 60.104 V 0 Z"
           style="fill:#ffffff;fill-opacity:1;fill-rule:nonzero;stroke:none"
           id="path1366" />
      </g>
      <g
         id="g1368"
         transform="matrix(0.56739383,0,0,-0.56739547,146.9947,145.97687)"
         style="fill:#1ebf90;fill-opacity:1"
         
         inkscape:export-xdpi="139.44188"
         inkscape:export-ydpi="139.44188">
        <path
           d="m 0,0 c -0.396,-0.768 -0.904,-1.43 -1.523,-1.986 -0.206,-0.185 -0.425,-0.358 -0.656,-0.52 -0.308,-0.215 -0.638,-0.41 -0.99,-0.583 -0.352,-0.173 -0.726,-0.336 -1.122,-0.488 -0.793,-0.303 -1.673,-0.563 -2.641,-0.78 -1.453,-0.325 -3.103,-0.553 -4.951,-0.683 -1.232,-0.086 -2.552,-0.13 -3.96,-0.13 h -13.493 v 0 20.305 0 h 11.602 c 6.558,0 11.328,-0.653 14.313,-1.956 1.119,-0.489 2.028,-1.173 2.728,-2.052 0.233,-0.293 0.443,-0.608 0.63,-0.944 C 0.683,8.838 1.057,7.147 1.057,5.109 1.057,3.069 0.704,1.366 0,0 m -29.336,49.688 v 0 h 9.458 v 0 c 1.45,0 2.795,-0.039 4.035,-0.118 1.24,-0.079 2.375,-0.197 3.405,-0.355 1.03,-0.157 1.955,-0.354 2.775,-0.591 0.819,-0.236 1.534,-0.512 2.144,-0.827 1.523,-0.788 2.571,-2.094 3.142,-3.917 0.343,-1.093 0.515,-2.373 0.515,-3.839 0,-3.91 -1.324,-6.454 -3.973,-7.63 -2.648,-1.178 -6.705,-1.765 -12.17,-1.765 h -9.331 v 0 z m 35.767,11.98 c -1.629,0.967 -3.526,1.808 -5.69,2.523 -0.542,0.179 -1.096,0.346 -1.663,0.502 -2.267,0.625 -4.74,1.072 -7.417,1.34 -2.007,0.201 -4.13,0.302 -6.368,0.302 H -49.01 V 48.805 -4.413 -21.817 h 38.59 c 8.117,0 14.582,1.249 19.448,3.705 v 40.243 c -0.528,0.241 -1.07,0.466 -1.627,0.674 -0.634,0.237 -1.28,0.461 -1.952,0.655 -0.648,0.187 -1.314,0.354 -1.997,0.501 0.379,0.169 0.728,0.325 1.049,0.469 0.641,0.289 1.166,0.531 1.576,0.725 0.205,0.098 0.381,0.183 0.528,0.257 0.147,0.073 0.323,0.174 0.528,0.303 0.409,0.257 0.935,0.625 1.576,1.103 0.098,0.073 0.216,0.166 0.319,0.244 v 32.753 c -0.12,0.102 -0.23,0.208 -0.355,0.308 -0.68,0.547 -1.428,1.062 -2.242,1.545"
           style="fill:#1ebf90;fill-opacity:1;fill-rule:nonzero;stroke:none"
           id="path1370" />
      </g>
      <g
         id="g1372"
         transform="matrix(0.56739383,0,0,-0.56739547,184.7568,144.61723)"
         style="fill:#1ebf90;fill-opacity:1"
         
         inkscape:export-xdpi="139.44188"
         inkscape:export-ydpi="139.44188">
        <path
           d="m 0,0 c -1.209,-1.135 -2.548,-2.128 -4.017,-2.979 -2.203,-1.276 -4.699,-2.234 -7.486,-2.873 -2.788,-0.638 -5.869,-0.957 -9.242,-0.957 H -33.23 v 53.597 h 10.971 c 3.127,0 6,-0.228 8.622,-0.684 1.572,-0.273 3.054,-0.629 4.446,-1.066 0.927,-0.292 1.814,-0.62 2.661,-0.984 C -3.99,42.96 -1.814,41.538 0,39.789 4.833,35.122 7.251,28.459 7.251,19.8 7.251,11.139 4.833,4.541 0,0 m 26.262,30.018 c -0.263,1.525 -0.591,3.004 -0.985,4.435 -0.789,2.862 -1.84,5.537 -3.153,8.024 -0.986,1.865 -2.119,3.625 -3.399,5.278 -1.281,1.654 -2.71,3.202 -4.286,4.644 -0.525,0.481 -1.065,0.947 -1.619,1.398 -1.108,0.901 -2.273,1.743 -3.496,2.524 -1.222,0.781 -2.502,1.502 -3.839,2.163 -1.336,0.662 -2.73,1.263 -4.181,1.803 -2.902,1.082 -6.032,1.924 -9.391,2.525 -2.52,0.451 -5.167,0.766 -7.944,0.946 -1.851,0.121 -3.759,0.181 -5.724,0.181 h -31.148 v -88.152 h 30.139 c 16.815,0 29.321,3.993 37.518,11.98 1.025,0.999 1.986,2.042 2.882,3.129 0.449,0.544 0.881,1.099 1.297,1.665 0.833,1.133 1.601,2.31 2.306,3.532 0.352,0.61 0.688,1.232 1.008,1.866 0.641,1.266 1.217,2.577 1.729,3.933 2.05,5.423 3.074,11.56 3.074,18.412 0,3.426 -0.262,6.664 -0.788,9.714"
           style="fill:#1ebf90;fill-opacity:1;fill-rule:nonzero;stroke:none"
           id="path1374" />
      </g>
    </g>
  </g>
</svg>
